<svg width="106" height="48" viewBox="0 0 106 48" fill="none" xmlns="http://www.w3.org/2000/svg">
<path d="M30.2203 8.1922H24.0406V39.0552H30.2203V8.1922Z" fill="#9BAFB5"/>
<path d="M24.0406 8.1922L19.7449 10.5257V36.797L24.0406 39.0552V8.1922Z" fill="#90A6AD"/>
<path d="M30.2957 8.1922V39.0552L34.5913 36.797V10.5257L30.2957 8.1922Z" fill="#BECBCF"/>
<path d="M38.887 12.4828L41.2986 13.7625V33.4848L38.887 34.7644V12.4828Z" fill="#BECBCF"/>
<path d="M38.887 34.7644L34.5913 33.4848V13.7625L38.887 12.4828V34.7644Z" fill="#9BAFB5"/>
<path d="M13.0377 13.7625V33.4848L15.4493 34.7644V12.4828L13.0377 13.7625Z" fill="#9BAFB5"/>
<path d="M15.4493 12.4828L19.7449 13.7625V33.4848L15.4493 34.7644V12.4828Z" fill="#BECBCF"/>
<path d="M73.1493 16.3158V15.3372C73.1493 15.1867 73.3 15.0361 73.4507 15.0361H78.0479C78.1986 15.0361 78.3493 15.1114 78.3493 15.3372V16.1653C78.3493 16.3158 78.1986 16.5416 77.9725 16.8427L75.6363 20.2302C76.4652 20.2302 77.445 20.3807 78.1986 20.8324C78.3493 20.9076 78.4247 21.1335 78.4247 21.284V22.3379C78.4247 22.4884 78.2739 22.639 78.0479 22.5637C76.616 21.8109 74.7319 21.8109 73.2247 22.5637C73.0739 22.639 72.8478 22.4884 72.8478 22.3379V21.3593C72.8478 21.2087 72.8478 20.9076 72.9986 20.6065L75.7116 16.6922H73.3754C73.3 16.6169 73.1493 16.4664 73.1493 16.3158Z" fill="#BECBCF"/>
<path d="M56.4188 22.7142H55.0623C54.9115 22.7142 54.8362 22.5637 54.8362 22.4884V15.3372C54.8362 15.1867 54.9869 15.0361 55.1376 15.0361H56.4188C56.5695 15.0361 56.6449 15.1867 56.7202 15.2619V16.1652C57.0971 15.2619 57.7 14.8856 58.5289 14.8856C59.3579 14.8856 59.9608 15.3372 60.3376 16.1652C60.7145 15.2619 61.3927 14.8856 62.2971 14.8856C62.9 14.8856 63.5029 15.1114 63.8797 15.6383C64.3319 16.2405 64.2565 17.0686 64.2565 17.8966V22.4131C64.2565 22.5637 64.1058 22.7142 63.955 22.7142H62.5985C62.4478 22.7142 62.2971 22.5637 62.2971 22.4131V18.5741C62.2971 18.273 62.2971 17.5202 62.2217 17.2191C62.1463 16.6922 61.7695 16.5416 61.4681 16.5416C61.1666 16.5416 60.7145 16.7675 60.6391 17.1438C60.5637 17.5202 60.4884 18.0471 60.4884 18.4988V22.3379C60.4884 22.4884 60.3376 22.639 60.1869 22.639H58.8304C58.6797 22.639 58.5289 22.4884 58.5289 22.3379V18.4988C58.5289 17.746 58.6797 16.5416 57.7 16.5416C56.7202 16.5416 56.7956 17.6708 56.7956 18.4988V22.3379C56.7202 22.5637 56.5695 22.7142 56.4188 22.7142Z" fill="#BECBCF"/>
<path d="M82.2681 16.3911C81.2884 16.3911 81.213 17.746 81.213 18.7246C81.213 19.5527 81.213 21.4345 82.2681 21.4345C83.3232 21.4345 83.3986 19.929 83.3986 19.0257C83.3986 18.4235 83.3986 17.746 83.1725 17.1438C83.0217 16.5416 82.7203 16.3911 82.2681 16.3911ZM82.1927 14.8856C84.3029 14.8856 85.358 16.6922 85.358 18.8752C85.358 21.0582 84.1522 22.7895 82.1927 22.7895C80.158 22.7895 79.0275 20.9829 79.0275 18.7999C79.1029 16.6922 80.158 14.8856 82.1927 14.8856Z" fill="#BECBCF"/>
<path d="M88.0711 22.7142H86.7145C86.5638 22.7142 86.4131 22.5637 86.4131 22.4131V15.2619C86.4131 15.1114 86.5638 15.0361 86.7145 15.0361H87.9957C88.1464 15.0361 88.2218 15.1114 88.2218 15.2619V16.3158C88.5986 15.3372 89.1261 14.8856 90.1058 14.8856C90.7841 14.8856 91.3116 15.1114 91.7638 15.7136C92.1406 16.3158 92.1406 17.2191 92.1406 17.9719V22.4884C92.1406 22.639 91.9899 22.7142 91.8392 22.7142H90.4827C90.3319 22.7142 90.2566 22.639 90.2566 22.4884V18.5741C90.2566 17.8213 90.3319 16.6169 89.4276 16.6169C89.0508 16.6169 88.7493 16.8427 88.5986 17.2191C88.3725 17.6708 88.3725 18.0471 88.3725 18.5741V22.4884C88.3725 22.5637 88.2218 22.7142 88.0711 22.7142Z" fill="#BECBCF"/>
<path d="M69.2304 20.7571C69.0043 21.1335 68.6275 21.4346 68.3261 21.4346C67.7985 21.4346 67.4971 20.9829 67.4971 20.456C67.4971 19.2516 68.5522 19.0257 69.6072 19.0257V19.3268C69.5319 19.8538 69.5319 20.2301 69.2304 20.7571ZM72.0188 21.4346C71.7174 21.0582 71.4913 20.7571 71.4913 20.1549V17.9719C71.4913 17.0686 71.5667 16.1653 70.813 15.5631C70.2855 15.0361 69.3812 14.8103 68.7029 14.8103C67.4217 14.8103 65.9145 15.3372 65.613 16.9933C65.613 17.1438 65.6884 17.2944 65.8391 17.2944L67.1956 17.445C67.3464 17.445 67.4217 17.2944 67.4217 17.1438C67.5725 16.5416 68.0246 16.3158 68.5522 16.3158C68.8536 16.3158 69.2304 16.3911 69.3058 16.6922C69.5319 16.9933 69.4565 17.3697 69.4565 17.6708V17.8213C68.6275 17.8966 67.5725 17.9719 66.8188 18.3483C65.9898 18.7246 65.3116 19.4774 65.3116 20.6818C65.3116 22.112 66.2159 22.8648 67.4217 22.8648C68.4014 22.8648 68.929 22.639 69.758 21.8862C70.0594 22.2626 70.1348 22.4884 70.5116 22.7895C70.587 22.8648 70.7377 22.8648 70.8884 22.7895C71.1899 22.5637 71.642 22.0368 71.9435 21.8862C72.0942 21.7357 72.0942 21.5098 72.0188 21.4346Z" fill="#BECBCF"/>
<path d="M50.9927 20.7571C50.7666 21.1335 50.3898 21.4346 50.013 21.4346C49.4855 21.4346 49.184 20.9829 49.184 20.456C49.184 19.2516 50.2391 19.0257 51.2942 19.0257V19.3268C51.2188 19.8538 51.2942 20.2301 50.9927 20.7571ZM53.1782 20.1549V17.9719C53.1782 17.0686 53.2536 16.1653 52.5 15.5631C51.8971 15.0361 51.0681 14.8103 50.3898 14.8103C49.1086 14.8103 47.6014 15.3372 47.2999 16.9933C47.2999 17.1438 47.3753 17.2944 47.526 17.2944L48.8826 17.445C49.0333 17.445 49.1086 17.2944 49.1086 17.1438C49.2594 16.5416 49.7115 16.3158 50.2391 16.3158C50.5405 16.3158 50.9173 16.3911 51.0681 16.6922C51.2942 16.9933 51.2188 17.3697 51.2188 17.6708V17.8213C50.4652 17.8966 49.3347 17.9719 48.5811 18.3483C47.7521 18.7246 47.0739 19.4774 47.0739 20.6818C47.0739 22.112 47.9782 22.8648 49.184 22.8648C50.1637 22.8648 50.6913 22.639 51.5202 21.8862C51.8217 22.2626 51.8971 22.4884 52.3492 22.7895C52.4246 22.8648 52.5753 22.8648 52.726 22.7895C53.0275 22.5637 53.4797 22.0368 53.7811 21.8862C53.9318 21.8109 53.8565 21.6604 53.7811 21.5098C53.4043 21.0582 53.1782 20.7571 53.1782 20.1549Z" fill="#BECBCF"/>
<path d="M47.9782 28.8116H48.8072C49.7115 28.8116 50.3144 28.2846 50.3144 27.5319C50.3144 26.7038 49.6362 26.3275 48.7318 26.2522C48.2797 26.2522 47.9782 26.3275 47.9028 26.3275L47.9782 28.8116ZM47.0739 25.7253C47.526 25.65 48.1289 25.5747 48.7318 25.5747C49.6362 25.5747 50.2391 25.7253 50.6913 26.1769C51.0681 26.478 51.2188 26.9297 51.2188 27.4566C51.2188 28.2846 50.6159 28.9621 49.9376 29.1879C50.4652 29.4138 50.7666 29.8654 50.9173 30.5429C51.1434 31.4462 51.2942 32.1237 51.4449 32.4248H50.5405C50.3898 32.199 50.2391 31.672 50.0884 30.7687C49.8623 29.8654 49.4855 29.489 48.7318 29.489H47.9028V32.4248H47.0739V25.7253Z" fill="#BECBCF"/>
<path d="M56.7479 29.2694H54.1102V31.6782H57.0494V32.4309H53.2059V25.6561H56.8986V26.4089H54.1102V28.5166H56.7479V29.2694Z" fill="#BECBCF"/>
<path d="M59.7898 31.7603C60.0159 31.8356 60.3927 31.8356 60.6188 31.8356C62.5028 31.8356 63.4825 30.7817 63.4825 28.9751C63.4825 27.3943 62.6535 26.4157 60.7695 26.4157C60.3173 26.4157 60.0159 26.491 59.7898 26.491V31.7603ZM58.8854 25.7383C59.413 25.663 60.0159 25.5877 60.7695 25.5877C62.0506 25.5877 62.955 25.8888 63.4825 26.4157C64.0854 27.0179 64.3869 27.7707 64.3869 28.8246C64.3869 29.8784 64.0101 30.857 63.4072 31.4592C62.7289 32.1367 61.7492 32.4378 60.3927 32.4378C59.7144 32.4378 59.2622 32.4378 58.8101 32.3625L58.8854 25.7383Z" fill="#BECBCF"/>
<path d="M66.1202 31.384C66.497 31.6098 67.0246 31.8356 67.7028 31.8356C68.5318 31.8356 69.1347 31.3087 69.1347 30.7065C69.1347 30.1043 68.7579 29.7279 67.8536 29.3515C66.7985 28.9751 66.0449 28.4482 66.0449 27.3943C66.0449 26.3405 66.8738 25.5125 68.3057 25.5125C69.0594 25.5125 69.5115 25.663 69.813 25.8888L69.5869 26.6416C69.3608 26.491 68.9086 26.3405 68.3057 26.3405C67.4014 26.3405 67.0246 26.9427 67.0246 27.3191C67.0246 27.9965 67.4767 28.2224 68.3811 28.5988C69.5115 29.0504 70.1144 29.5773 70.1144 30.6312C70.1144 31.6851 69.3608 32.5884 67.7782 32.5884C67.0999 32.5884 66.4217 32.3625 66.0449 32.1367L66.1202 31.384Z" fill="#BECBCF"/>
<path d="M72.8755 25.6561V28.5166H76.1914V25.6561H77.0204V32.4309H76.1914V29.2694H72.8755V32.4309H71.9711V25.6561H72.8755Z" fill="#BECBCF"/>
<path d="M80.1102 25.6561H79.2812V32.4309H80.1102V25.6561Z" fill="#BECBCF"/>
<path d="M82.3712 25.6561H85.9886V26.4089H83.2001V28.6672H85.7625V29.4199H83.2001V32.4309H82.3712V25.6561Z" fill="#BECBCF"/>
<path d="M87.1943 25.6561V26.4089H89.2291V32.4309H90.1335V26.4089H92.1683V25.6561H87.1943Z" fill="#BECBCF"/>
</svg>
