<svg width="59" height="48" viewBox="0 0 59 48" fill="none" xmlns="http://www.w3.org/2000/svg">
<g clip-path="url(#clip0_2450_1966)">
<path d="M16.9228 19.2079C16.9228 19.9287 17.0008 20.5131 17.1371 20.9416C17.293 21.3702 17.4878 21.8377 17.7605 22.3442C17.8579 22.5001 17.8968 22.6559 17.8968 22.7923C17.8968 22.9871 17.78 23.1819 17.5267 23.3767L16.2995 24.1948C16.1241 24.3117 15.9488 24.3702 15.793 24.3702C15.5982 24.3702 15.4034 24.2728 15.2086 24.0974C14.9358 23.8052 14.7021 23.4935 14.5073 23.1819C14.3125 22.8507 14.1177 22.4806 13.9034 22.0325C12.3839 23.8247 10.4749 24.7208 8.17621 24.7208C6.53987 24.7208 5.23469 24.2533 4.28016 23.3182C3.32563 22.3832 2.83862 21.1364 2.83862 19.578C2.83862 17.9222 3.42303 16.5781 4.61132 15.5651C5.79962 14.5521 7.37752 14.0456 9.38398 14.0456C10.0463 14.0456 10.7281 14.1041 11.4489 14.2015C12.1697 14.2989 12.9099 14.4547 13.6891 14.63V13.208C13.6891 11.7275 13.3774 10.695 12.7735 10.0911C12.1502 9.48726 11.0982 9.19506 9.59826 9.19506C8.91646 9.19506 8.21517 9.27298 7.4944 9.4483C6.77363 9.62362 6.07234 9.83791 5.39053 10.1106C5.07885 10.247 4.84509 10.3249 4.70873 10.3639C4.57236 10.4028 4.47496 10.4223 4.39704 10.4223C4.12432 10.4223 3.98796 10.2275 3.98796 9.81842V8.86389C3.98796 8.55221 4.02692 8.31845 4.12432 8.18209C4.22172 8.04572 4.39704 7.90936 4.66977 7.773C5.35157 7.42236 6.16974 7.13015 7.12427 6.89639C8.07881 6.64315 9.09178 6.52627 10.1632 6.52627C12.4813 6.52627 14.1761 7.05223 15.267 8.10416C16.3384 9.1561 16.8839 10.7535 16.8839 12.8963V19.2079H16.9228ZM9.01386 22.1689C9.6567 22.1689 10.319 22.052 11.0203 21.8182C11.7216 21.5845 12.345 21.1559 12.8709 20.5715C13.1826 20.2014 13.4164 19.7923 13.5333 19.3248C13.6502 18.8573 13.7281 18.2923 13.7281 17.63V16.8118C13.1631 16.6755 12.5593 16.5586 11.9359 16.4807C11.3125 16.4027 10.7086 16.3638 10.1048 16.3638C8.79958 16.3638 7.84504 16.617 7.2022 17.143C6.55935 17.669 6.24766 18.4092 6.24766 19.3832C6.24766 20.2988 6.48143 20.9806 6.96843 21.4481C7.43596 21.9351 8.11777 22.1689 9.01386 22.1689ZM24.6565 24.2728C24.3058 24.2728 24.0721 24.2143 23.9162 24.078C23.7604 23.9611 23.624 23.6884 23.5072 23.3182L18.9293 8.26001C18.8124 7.8704 18.754 7.61716 18.754 7.4808C18.754 7.16911 18.9098 6.99379 19.2215 6.99379H21.1306C21.5007 6.99379 21.7539 7.05223 21.8903 7.18859C22.0461 7.30547 22.163 7.5782 22.2799 7.94832L25.5526 20.8442L28.5915 7.94832C28.6889 7.55872 28.8058 7.30547 28.9616 7.18859C29.1175 7.07171 29.3902 6.99379 29.7408 6.99379H31.2992C31.6694 6.99379 31.9226 7.05223 32.0785 7.18859C32.2343 7.30547 32.3707 7.5782 32.4486 7.94832L35.5265 21.0001L38.8965 7.94832C39.0134 7.55872 39.1498 7.30547 39.2861 7.18859C39.442 7.07171 39.6952 6.99379 40.0459 6.99379H41.8575C42.1692 6.99379 42.3445 7.14963 42.3445 7.4808C42.3445 7.5782 42.3251 7.6756 42.3056 7.79248C42.2861 7.90936 42.2471 8.0652 42.1692 8.27949L37.4745 23.3377C37.3576 23.7273 37.2212 23.9806 37.0654 24.0974C36.9096 24.2143 36.6563 24.2922 36.3251 24.2922H34.6498C34.2797 24.2922 34.0265 24.2338 33.8706 24.0974C33.7148 23.9611 33.5784 23.7078 33.5005 23.3182L30.4811 10.7535L27.4811 23.2987C27.3837 23.6884 27.2668 23.9416 27.111 24.078C26.9552 24.2143 26.6824 24.2728 26.3318 24.2728H24.6565ZM49.6886 24.7987C48.6756 24.7987 47.6626 24.6818 46.6886 24.4481C45.7146 24.2143 44.9549 23.9611 44.4484 23.6689C44.1367 23.4935 43.9224 23.2987 43.8445 23.1234C43.7666 22.9481 43.7276 22.7533 43.7276 22.578V21.5845C43.7276 21.1754 43.8835 20.9806 44.1757 20.9806C44.2926 20.9806 44.4094 21.0001 44.5263 21.039C44.6432 21.078 44.8185 21.1559 45.0133 21.2338C45.6757 21.526 46.3964 21.7598 47.1562 21.9156C47.9354 22.0715 48.6951 22.1494 49.4743 22.1494C50.7016 22.1494 51.6561 21.9351 52.3184 21.5066C52.9807 21.078 53.3314 20.4546 53.3314 19.6559C53.3314 19.1105 53.1561 18.6625 52.8054 18.2923C52.4548 17.9222 51.7925 17.591 50.8379 17.2794L48.0133 16.4027C46.5912 15.9547 45.5393 15.2924 44.8965 14.4158C44.2536 13.5586 43.9224 12.6041 43.9224 11.5911C43.9224 10.773 44.0978 10.0522 44.4484 9.42882C44.799 8.80545 45.2666 8.26001 45.851 7.83144C46.4354 7.3834 47.0977 7.05223 47.8769 6.81847C48.6561 6.58471 49.4743 6.4873 50.3314 6.4873C50.76 6.4873 51.208 6.50678 51.6366 6.56523C52.0847 6.62367 52.4937 6.70159 52.9028 6.77951C53.2924 6.87691 53.6626 6.97431 54.0132 7.09119C54.3638 7.20807 54.6366 7.32495 54.8314 7.44184C55.1041 7.59768 55.2989 7.75352 55.4158 7.92884C55.5327 8.08468 55.5911 8.29897 55.5911 8.57169V9.48726C55.5911 9.89635 55.4353 10.1106 55.1431 10.1106C54.9872 10.1106 54.734 10.0327 54.4028 9.87687C53.2924 9.37038 52.0457 9.11714 50.6626 9.11714C49.5522 9.11714 48.6756 9.29246 48.0717 9.66258C47.4678 10.0327 47.1562 10.5976 47.1562 11.3963C47.1562 11.9418 47.351 12.4093 47.7406 12.7794C48.1302 13.1495 48.8509 13.5197 49.8834 13.8508L52.6496 14.7274C54.0522 15.1755 55.0651 15.7989 55.669 16.5975C56.2729 17.3962 56.5651 18.3118 56.5651 19.3248C56.5651 20.1624 56.3898 20.9222 56.0586 21.5845C55.708 22.2468 55.2405 22.8312 54.6366 23.2987C54.0327 23.7858 53.3119 24.1364 52.4743 24.3896C51.5977 24.6624 50.6821 24.7987 49.6886 24.7987Z" fill="#BECBCF"/>
<path d="M53.3704 34.2661C46.9614 38.9998 37.6498 41.5127 29.6435 41.5127C18.4228 41.5127 8.3126 37.3634 0.67635 30.4674C0.0724629 29.922 0.617909 29.1817 1.33868 29.6103C9.5983 34.4024 19.7865 37.305 30.3253 37.305C37.4356 37.305 45.2471 35.8245 52.4353 32.7856C53.5067 32.2986 54.4223 33.4869 53.3704 34.2661Z" fill="#BECBCF"/>
<path d="M56.0392 31.2272C55.221 30.1753 50.6237 30.7207 48.5393 30.9739C47.9159 31.0519 47.8185 30.5064 48.3835 30.0973C52.0458 27.5259 58.0651 28.2662 58.7664 29.1233C59.4677 29.9999 58.5716 36.0193 55.1431 38.9024C54.6171 39.3504 54.1107 39.1167 54.3444 38.5323C55.1236 36.6037 56.8574 32.2596 56.0392 31.2272Z" fill="#BECBCF"/>
</g>
<defs>
<clipPath id="clip0_2450_1966">
<rect width="58.1538" height="48" fill="white" transform="translate(0.423096)"/>
</clipPath>
</defs>
</svg>
