<svg width="96" height="48" viewBox="0 0 96 48" fill="none" xmlns="http://www.w3.org/2000/svg">
<path d="M11.92 6.90161C11.468 6.43921 10.84 6.15521 10.1408 6.15521C9.81117 6.15388 9.48474 6.21933 9.18115 6.34761C8.87756 6.47589 8.60311 6.66435 8.37435 6.90161H8.36235C8.12644 7.13929 7.93977 7.42121 7.81305 7.73119C7.68634 8.04118 7.62208 8.37313 7.62395 8.70801C7.61932 9.38156 7.88198 10.0295 8.35435 10.5096L8.36635 10.5224C8.59607 10.7579 8.87088 10.9446 9.17437 11.0715C9.47787 11.1983 9.80381 11.2627 10.1328 11.2608C10.832 11.2608 11.4592 10.9808 11.912 10.5224L11.9168 10.5096C12.3696 10.0552 12.6368 9.41921 12.6368 8.70801C12.6411 8.03365 12.3792 7.38479 11.908 6.90241H11.912L11.92 6.90161ZM10.1408 41.8456C10.84 41.8456 11.4672 41.556 11.92 41.1016L11.9248 41.0888C12.3776 40.636 12.6448 39.996 12.6448 39.2928C12.6448 38.5728 12.3688 37.944 11.9248 37.4832H11.92C11.468 37.0168 10.84 36.7344 10.1408 36.7344C9.81086 36.7325 9.48405 36.7979 9.18032 36.9266C8.87658 37.0554 8.60233 37.2448 8.37435 37.4832H8.36235C7.89099 37.9673 7.62868 38.6172 7.63195 39.2928C7.6288 39.9644 7.89136 40.61 8.36235 41.0888L8.37435 41.1016C8.60449 41.3368 8.87928 41.5237 9.1826 41.6513C9.48592 41.779 9.81167 41.8455 10.1408 41.8456ZM23.808 34.112C24.1291 34.0268 24.4298 33.878 24.6923 33.6743C24.9548 33.4706 25.1737 33.2163 25.336 32.9264L25.3824 32.8368C25.6786 32.2674 25.7495 31.6073 25.5808 30.988C25.416 30.3512 25.0208 29.7864 24.4112 29.436L24.376 29.412C23.8083 29.0918 23.1369 29.0095 22.5088 29.1832C21.8848 29.3416 21.3248 29.7648 20.9824 30.3728C20.6495 30.9622 20.5589 31.6578 20.7296 32.3128C20.9021 32.9631 21.3214 33.5204 21.8984 33.8664H21.9024C22.5024 34.2184 23.18 34.28 23.8088 34.1064L23.808 34.112ZM12.7064 21.392C12.048 20.724 11.1384 20.304 10.1336 20.304C9.65465 20.3049 9.18075 20.4015 8.73974 20.5882C8.29873 20.7749 7.8995 21.048 7.56555 21.3912C6.90955 22.0584 6.50635 22.9792 6.50635 24.0032C6.50362 24.9823 6.88374 25.9237 7.56555 26.6264C8.22155 27.2904 9.12875 27.7064 10.1256 27.7064C11.1224 27.7064 12.04 27.2904 12.6984 26.6264C13.3809 25.9238 13.7617 24.982 13.7592 24.0024C13.7637 23.026 13.3824 22.0872 12.6984 21.3904L12.7064 21.392ZM11.2664 17.0416C12.7027 17.285 14.0242 17.9797 15.0392 19.0248H15.0472C15.2085 19.1896 15.3615 19.3623 15.5056 19.5424L18.0096 18.068C17.6801 17.0533 17.6518 15.9649 17.928 14.9344C18.2848 13.5744 19.152 12.3584 20.4496 11.596L20.492 11.5688C21.1 11.2156 21.7722 10.9868 22.4695 10.8957C23.1668 10.8047 23.8752 10.8532 24.5536 11.0384C25.2424 11.227 25.887 11.5504 26.45 11.9898C27.013 12.4292 27.4833 12.976 27.8336 13.5984V13.6024C28.5792 14.9144 28.7296 16.42 28.3752 17.7752C28.02 19.1352 27.1512 20.3592 25.8536 21.1176L25.5112 21.3232H25.4768C24.3158 21.8849 22.9911 22.0085 21.7464 21.6712C20.7321 21.3927 19.821 20.8244 19.1248 20.036L16.624 21.5056C16.9211 22.3019 17.0724 23.1453 17.0704 23.9952C17.0704 24.872 16.912 25.7184 16.624 26.496L19.1248 27.9624C19.8392 27.148 20.752 26.6024 21.7464 26.3264C23.0824 25.9552 24.5608 26.1128 25.8536 26.88L25.9368 26.92V26.924C27.1463 27.6681 28.0203 28.8521 28.3752 30.2272C28.7454 31.6343 28.5511 33.1303 27.8336 34.396L27.7888 34.488H27.7832C27.0679 35.7049 25.9089 36.5973 24.5496 36.9776C23.2136 37.336 21.7336 37.1832 20.4416 36.4272V36.4168C19.1917 35.6816 18.2847 34.4803 17.92 33.0768C17.6433 32.048 17.6717 30.961 18.0016 29.948L15.4976 28.4776C15.3532 28.6549 15.2002 28.825 15.0392 28.9872L15.0312 28.9952C14.0296 30.0192 12.7112 30.7312 11.2584 30.9672V33.9112C12.286 34.1329 13.2257 34.6524 13.96 35.4048L13.964 35.4128C14.9424 36.4032 15.548 37.784 15.548 39.3008C15.5505 40.7521 14.9815 42.146 13.964 43.1808L13.96 43.1968C12.976 44.184 11.624 44.8 10.1336 44.8C8.65035 44.8 7.29515 44.184 6.31275 43.188H6.30875V43.172C5.29016 42.1374 4.7202 40.7431 4.72235 39.2912C4.72235 37.7736 5.33035 36.3936 6.30875 35.4032V35.3952H6.31275C7.04314 34.639 7.98325 34.1188 9.01195 33.9016V30.9576C7.55195 30.7208 6.24395 30.0096 5.25195 28.9856L5.24155 28.9776C3.93379 27.6492 3.20055 25.8601 3.19995 23.996C3.19995 22.052 3.98235 20.2936 5.23195 19.0176H5.24235C6.25557 17.9723 7.57585 17.2776 9.01115 17.0344V14.1024C7.98585 13.8739 7.04849 13.3538 6.31195 12.6048H6.30795V12.5968C5.28888 11.5592 4.71902 10.1623 4.72155 8.70801C4.72009 7.25414 5.28981 5.85787 6.30795 4.82001L6.31995 4.81601C6.81527 4.30535 7.40799 3.89921 8.06303 3.62164C8.71807 3.34407 9.42213 3.2007 10.1336 3.20001C11.6248 3.20001 12.976 3.81601 13.9608 4.81601V4.82001H13.9648C14.9432 5.81601 15.5488 7.19841 15.5488 8.70801C15.55 10.1614 14.9813 11.5573 13.9648 12.596L13.9608 12.604C13.2312 13.3432 12.3 13.872 11.2592 14.1016V17.0336L11.2664 17.0416ZM25.3344 15.0856L25.3136 15.0536C24.9817 14.486 24.4411 14.0706 23.8072 13.896C23.488 13.8082 23.1544 13.7854 22.8262 13.829C22.4981 13.8725 22.182 13.9816 21.8968 14.1496H21.9008C21.2992 14.4968 20.8968 15.0656 20.728 15.7016C20.5556 16.3565 20.6463 17.0528 20.9808 17.6416L20.992 17.6576C21.3384 18.2576 21.8904 18.6616 22.5064 18.824C23.1248 19.0016 23.8152 18.9264 24.4088 18.5744L24.4408 18.5584C25.0248 18.2032 25.4168 17.6416 25.5784 17.0256C25.744 16.3896 25.6784 15.6944 25.3344 15.0856ZM36.448 15.9472H39.2424V24.6288L43.2728 20.0928H46.6328L41.7672 25.3488L46.6368 32H43.4368L39.2352 26.0496V32H36.44V15.9392M49.8624 26.0936C49.8624 27.572 50.9072 29.7208 53.4248 29.7208C54.9824 29.7208 56.0072 28.8952 56.5392 27.8128C56.8176 27.2872 56.9456 26.7248 56.9888 26.1328C57.01 25.557 56.9 24.9839 56.6672 24.4568C56.1776 23.3312 55.0895 22.3552 53.4047 22.3552C51.1447 22.3552 49.8632 24.2192 49.8632 26.0656V26.0856L49.8624 26.0936ZM59.7599 32H56.964V30.2856C56.22 31.672 54.6616 32.368 53.0184 32.368C49.264 32.368 47.0664 29.392 47.0664 26.0304C47.0664 22.276 49.7328 19.7152 53.0184 19.7152C55.1512 19.7152 56.452 20.8656 56.964 21.8216V20.0832H59.7599V32ZM62.9256 22.2768H61.4856V20.0848H62.9256V19.4128C62.9256 15.872 65.5712 15.6584 67.5776 15.6352V17.824C66.872 17.824 65.7216 17.824 65.7216 19.4992V20.0832H67.5776V22.2752H65.7216V32H62.9256V22.2768ZM69.4856 15.9392H72.2792V24.6208L76.3112 20.0848H79.6711L74.8056 25.3408L79.68 32H76.48L72.2784 26.0496V32H69.4848L69.4856 15.9392ZM82.9088 26.0936C82.9088 27.572 83.9527 29.7208 86.4711 29.7208C88.0263 29.7208 89.052 28.8952 89.5912 27.8128C89.8712 27.2872 89.9912 26.7248 90.0408 26.1328C90.06 25.5672 89.9552 24.9792 89.7184 24.4568C89.2384 23.3312 88.1424 22.3552 86.4568 22.3552C84.196 22.3552 82.9152 24.2192 82.9152 26.0656V26.0856L82.9088 26.0936ZM92.7968 32H90.0016V30.2856C89.2552 31.672 87.6976 32.368 86.056 32.368C82.3016 32.368 80.1064 29.392 80.1064 26.0304C80.1064 22.276 82.7704 19.7152 86.056 19.7152C88.188 19.7152 89.4896 20.8656 90.0016 21.8216V20.0832H92.7968V32Z" fill="#BECBCF"/>
</svg>
