<svg width="220" height="48" viewBox="0 0 220 48" fill="none" xmlns="http://www.w3.org/2000/svg">
<g clip-path="url(#clip0_2452_2025)">
<path d="M27.1007 16.3648H28.3353L31.8538 12.8463L32.0266 11.3525C30.011 9.5734 27.5751 8.33754 24.949 7.76164C22.3229 7.18574 19.5934 7.2888 17.0183 8.0611C14.4431 8.8334 12.1073 10.2494 10.2316 12.1755C8.35586 14.1015 7.00209 16.4739 6.29816 19.0685C6.69014 18.9079 7.12435 18.8818 7.53273 18.9945L14.5698 17.834C14.5698 17.834 14.9278 17.2414 15.113 17.2784C16.6208 15.6224 18.7046 14.6054 20.9377 14.4356C23.1709 14.2658 25.3845 14.9559 27.1254 16.3648H27.1007Z" fill="#BECBCF"/>
<path d="M36.8661 19.0685C36.0574 16.0903 34.3969 13.4129 32.0883 11.3648L27.1501 16.3031C28.1792 17.144 29.004 18.2077 29.5622 19.4139C30.1204 20.6201 30.3974 21.9372 30.3723 23.2661V24.1426C30.9495 24.1426 31.521 24.2563 32.0542 24.4772C32.5874 24.698 33.072 25.0218 33.4801 25.4299C33.8882 25.838 34.2119 26.3225 34.4328 26.8558C34.6537 27.389 34.7674 27.9605 34.7674 28.5377C34.7674 29.1149 34.6537 29.6864 34.4328 30.2196C34.2119 30.7528 33.8882 31.2374 33.4801 31.6455C33.072 32.0536 32.5874 32.3773 32.0542 32.5982C31.521 32.8191 30.9495 32.9328 30.3723 32.9328H21.5821L20.7056 33.8217V39.0933L21.5821 39.9698H30.3723C32.8269 39.9889 35.2225 39.2175 37.2047 37.7695C39.1868 36.3216 40.6503 34.2741 41.3786 31.93C42.107 29.5858 42.0614 27.0695 41.2487 24.7532C40.4361 22.4369 38.8994 20.4438 36.8661 19.0685Z" fill="#BECBCF"/>
<path d="M12.7797 39.9204H21.5698V32.8833H12.7797C12.1534 32.8832 11.5345 32.7485 10.9648 32.4883L9.73027 32.871L6.18705 36.3895L5.8784 37.6241C7.86536 39.1245 10.2899 39.9312 12.7797 39.9204Z" fill="#BECBCF"/>
<path d="M12.7796 17.0932C10.3979 17.1074 8.08014 17.8652 6.14999 19.2606C4.21983 20.6561 2.77371 22.6195 2.01361 24.8767C1.2535 27.1339 1.21737 29.5722 1.91025 31.8509C2.60313 34.1296 3.99044 36.1351 5.87839 37.5871L10.9772 32.4883C10.3292 32.1956 9.76197 31.75 9.32408 31.1898C8.88619 30.6297 8.59074 29.9716 8.46308 29.2722C8.33542 28.5727 8.37936 27.8527 8.59114 27.174C8.80291 26.4953 9.17619 25.878 9.67895 25.3753C10.1817 24.8725 10.7989 24.4992 11.4777 24.2875C12.1564 24.0757 12.8764 24.0317 13.5759 24.1594C14.2753 24.2871 14.9334 24.5825 15.4935 25.0204C16.0537 25.4583 16.4993 26.0255 16.792 26.6735L21.8908 21.5747C20.8206 20.1756 19.4413 19.0431 17.8607 18.2657C16.2801 17.4882 14.5411 17.0869 12.7796 17.0932Z" fill="#BECBCF"/>
<path d="M65.2983 35.0068C63.7849 35.0261 62.2832 34.7397 60.8831 34.1648C59.483 33.5899 58.2133 32.7384 57.1501 31.6611C56.0535 30.6296 55.1832 29.3814 54.5945 27.9957C54.0058 26.6101 53.7115 25.1171 53.7304 23.6117C53.7123 22.1064 54.0069 20.6137 54.5956 19.2282C55.1842 17.8426 56.0541 16.5943 57.1501 15.5623C58.2081 14.4739 59.4754 13.6109 60.8758 13.0253C62.2761 12.4397 63.7805 12.1436 65.2983 12.1549C66.7445 12.1356 68.1802 12.404 69.5218 12.9445C70.8634 13.4849 72.0841 14.2866 73.1131 15.3031L70.9156 17.5376C69.4107 16.0832 67.3909 15.2842 65.2983 15.3154C64.2128 15.3021 63.1363 15.5147 62.1374 15.9398C61.1385 16.3649 60.2389 16.9931 59.4958 17.7845C58.7236 18.5507 58.1143 19.4652 57.7048 20.473C57.2954 21.4808 57.0941 22.5611 57.1131 23.6488C57.104 24.724 57.3102 25.7902 57.7194 26.7846C58.1286 27.779 58.7326 28.6815 59.4958 29.4389C61.0247 30.9625 63.0878 31.8292 65.246 31.8546C67.4043 31.8799 69.4872 31.0619 71.0514 29.5747C72.0198 28.5142 72.6139 27.1655 72.7428 25.7352H65.3353V22.5747H75.8169C75.9199 23.2112 75.9612 23.8562 75.9403 24.5006C76.0055 25.8345 75.7995 27.1677 75.3348 28.4196C74.8701 29.6716 74.1563 30.8163 73.2366 31.7846C72.214 32.8492 70.9786 33.6864 69.6108 34.2416C68.243 34.7968 66.7736 35.0575 65.2983 35.0068ZM89.6687 32.908C88.2621 34.2564 86.3889 35.0092 84.4403 35.0092C82.4918 35.0092 80.6186 34.2564 79.2119 32.908C78.5118 32.2292 77.9604 31.4122 77.5927 30.509C77.225 29.6057 77.0491 28.6359 77.0761 27.6611C77.0499 26.6864 77.2261 25.7168 77.5938 24.8137C77.9614 23.9105 78.5124 23.0935 79.2119 22.4142C80.62 21.0686 82.4927 20.3178 84.4403 20.3178C86.388 20.3178 88.2606 21.0686 89.6687 22.4142C90.3683 23.0935 90.9193 23.9105 91.2869 24.8137C91.6545 25.7168 91.8308 26.6864 91.8046 27.6611C91.83 28.6368 91.6521 29.6072 91.2823 30.5105C90.9125 31.4138 90.3588 32.2303 89.6564 32.908H89.6687ZM81.5206 30.8463C81.8947 31.2459 82.3469 31.5644 82.8491 31.7821C83.3514 31.9999 83.8929 32.1123 84.4403 32.1123C84.9877 32.1123 85.5293 31.9999 86.0315 31.7821C86.5338 31.5644 86.9859 31.2459 87.3601 30.8463C87.7681 30.4247 88.0875 29.9256 88.2995 29.3786C88.5115 28.8315 88.6119 28.2476 88.5947 27.6611C88.6129 27.0727 88.513 26.4866 88.301 25.9374C88.0889 25.3882 87.769 24.8871 87.3601 24.4636C86.981 24.0681 86.5258 23.7534 86.0219 23.5384C85.518 23.3234 84.9758 23.2126 84.428 23.2126C83.8802 23.2126 83.338 23.3234 82.8341 23.5384C82.3302 23.7534 81.875 24.0681 81.4959 24.4636C81.087 24.8871 80.7671 25.3882 80.555 25.9374C80.343 26.4866 80.2431 27.0727 80.2613 27.6611C80.2457 28.2484 80.348 28.8329 80.5622 29.38C80.7764 29.9271 81.098 30.4257 81.5082 30.8463H81.5206ZM105.743 32.908C104.336 34.2564 102.463 35.0092 100.514 35.0092C98.5659 35.0092 96.6927 34.2564 95.286 32.908C94.5859 32.2292 94.0345 31.4122 93.6668 30.509C93.2992 29.6057 93.1232 28.6359 93.1502 27.6611C93.124 26.6864 93.3003 25.7168 93.6679 24.8137C94.0355 23.9105 94.5865 23.0935 95.286 22.4142C96.6927 21.0658 98.5659 20.313 100.514 20.313C102.463 20.313 104.336 21.0658 105.743 22.4142C106.442 23.0935 106.993 23.9105 107.361 24.8137C107.729 25.7168 107.905 26.6864 107.879 27.6611C107.906 28.6359 107.73 29.6057 107.362 30.509C106.994 31.4122 106.443 32.2292 105.743 32.908ZM97.5947 30.8463C97.9688 31.2459 98.421 31.5644 98.9233 31.7821C99.4255 31.9999 99.9671 32.1123 100.514 32.1123C101.062 32.1123 101.603 31.9999 102.106 31.7821C102.608 31.5644 103.06 31.2459 103.434 30.8463C103.842 30.4247 104.162 29.9256 104.374 29.3786C104.586 28.8315 104.686 28.2476 104.669 27.6611C104.687 27.0727 104.587 26.4866 104.375 25.9374C104.163 25.3882 103.843 24.8871 103.434 24.4636C103.055 24.0681 102.6 23.7534 102.096 23.5384C101.592 23.3234 101.05 23.2126 100.502 23.2126C99.9543 23.2126 99.4121 23.3234 98.9082 23.5384C98.4043 23.7534 97.9491 24.0681 97.57 24.4636C97.1611 24.8871 96.8412 25.3882 96.6291 25.9374C96.4171 26.4866 96.3172 27.0727 96.3354 27.6611C96.3198 28.2484 96.4221 28.8329 96.6363 29.38C96.8505 29.9271 97.1722 30.4257 97.5823 30.8463H97.5947ZM116.311 41.5994C114.831 41.6465 113.38 41.1846 112.2 40.2908C111.152 39.503 110.326 38.4564 109.805 37.2537L112.619 36.0809C112.926 36.7997 113.405 37.4316 114.014 37.9204C114.667 38.4463 115.486 38.7221 116.323 38.6982C116.854 38.7305 117.386 38.648 117.883 38.4562C118.379 38.2645 118.828 37.968 119.2 37.5871C119.943 36.6899 120.311 35.5394 120.224 34.3772V33.3155H120.113C119.643 33.8742 119.049 34.3157 118.378 34.605C117.707 34.8943 116.978 35.0234 116.249 34.9821C115.322 34.9849 114.405 34.7955 113.555 34.4257C112.705 34.056 111.941 33.514 111.311 32.834C110.627 32.1594 110.088 31.3531 109.725 30.464C109.362 29.5748 109.183 28.6213 109.2 27.6611C109.183 26.6953 109.361 25.736 109.724 24.8407C110.086 23.9455 110.626 23.1327 111.311 22.4512C111.939 21.7684 112.703 21.2237 113.553 20.8517C114.403 20.4798 115.321 20.2887 116.249 20.2907C117.034 20.2893 117.81 20.4622 118.521 20.7969C119.135 21.0653 119.683 21.4657 120.126 21.9697H120.237V20.7969H123.298V33.9451C123.379 34.9852 123.247 36.0308 122.909 37.0179C122.571 38.005 122.036 38.9128 121.335 39.6858C120.668 40.3242 119.88 40.8224 119.017 41.1511C118.154 41.4798 117.234 41.6322 116.311 41.5994ZM116.533 32.1179C117.06 32.1295 117.583 32.0249 118.066 31.8115C118.548 31.5982 118.977 31.2813 119.323 30.8833C120.085 30.0104 120.486 28.8807 120.447 27.7228C120.492 26.5455 120.091 25.3943 119.323 24.5006C118.978 24.102 118.549 23.7847 118.066 23.5712C117.584 23.3578 117.06 23.2536 116.533 23.266C115.991 23.2549 115.454 23.3593 114.956 23.5721C114.457 23.785 114.01 24.1015 113.644 24.5006C112.827 25.3622 112.384 26.5113 112.41 27.6982C112.397 28.2803 112.5 28.8592 112.711 29.4016C112.923 29.944 113.24 30.4391 113.644 30.8587C114.009 31.2616 114.455 31.5823 114.953 31.7994C115.451 32.0166 115.99 32.1251 116.533 32.1179ZM128.743 12.9821V34.5624H125.521V12.9821H128.743ZM137.582 35.0068C136.617 35.0316 135.658 34.8569 134.763 34.4937C133.869 34.1304 133.059 33.5864 132.385 32.8957C131.701 32.2101 131.163 31.3925 130.804 30.4927C130.445 29.5928 130.273 28.6295 130.298 27.6611C130.262 26.6904 130.421 25.7222 130.767 24.8144C131.113 23.9066 131.638 23.0777 132.311 22.3771C132.945 21.7086 133.712 21.1799 134.562 20.8248C135.413 20.4698 136.328 20.2963 137.249 20.3154C138.096 20.3065 138.936 20.4703 139.718 20.7969C140.422 21.0811 141.064 21.5006 141.607 22.0315C142.073 22.4816 142.488 22.9826 142.842 23.5253C143.128 23.9835 143.372 24.467 143.57 24.9697L143.903 25.8093L134.027 29.871C134.326 30.5573 134.825 31.137 135.46 31.5337C136.095 31.9304 136.835 32.1255 137.582 32.0932C138.31 32.0952 139.026 31.9086 139.66 31.5516C140.294 31.1946 140.824 30.6794 141.2 30.0562L143.669 31.7229C143.039 32.6244 142.232 33.3887 141.299 33.9698C140.188 34.6715 138.896 35.032 137.582 35.0068ZM133.459 27.4389L140.027 24.7105C139.825 24.2294 139.463 23.8327 139.002 23.587C138.487 23.2959 137.903 23.1467 137.311 23.1549C136.306 23.181 135.352 23.6024 134.657 24.3278C134.24 24.7262 133.917 25.2116 133.71 25.7494C133.503 26.2873 133.417 26.8641 133.459 27.4389ZM160.78 35.0068C159.41 35.0305 158.049 34.777 156.779 34.2615C155.509 33.7461 154.356 32.9794 153.39 32.0073C152.424 31.0353 151.664 29.8781 151.156 28.6051C150.648 27.3321 150.403 25.9696 150.434 24.5994C150.403 23.2292 150.648 21.8667 151.156 20.5937C151.664 19.3207 152.424 18.1634 153.39 17.1914C154.356 16.2194 155.509 15.4527 156.779 14.9372C158.049 14.4218 159.41 14.1683 160.78 14.1919C162.167 14.1486 163.546 14.4192 164.814 14.9836C166.081 15.548 167.205 16.3915 168.101 17.4512L166.323 19.1796C165.666 18.3523 164.822 17.6919 163.861 17.2522C162.9 16.8124 161.848 16.6056 160.792 16.6487C159.776 16.6258 158.765 16.8087 157.821 17.1863C156.877 17.564 156.019 18.1286 155.299 18.8463C154.55 19.5994 153.965 20.4992 153.58 21.4893C153.195 22.4793 153.02 23.5382 153.064 24.5994C153.02 25.6606 153.195 26.7194 153.58 27.7095C153.965 28.6995 154.55 29.5994 155.299 30.3525C156.019 31.0701 156.877 31.6348 157.821 32.0124C158.765 32.3901 159.776 32.5729 160.792 32.55C161.972 32.5632 163.14 32.3104 164.209 31.8102C165.277 31.3101 166.22 30.5755 166.965 29.6611L168.743 31.4389C167.812 32.552 166.644 33.4421 165.323 34.0438C163.9 34.7009 162.347 35.03 160.78 35.0068ZM173.521 34.5624H170.965V14.624H173.521V34.5624ZM177.694 22.5623C179.033 21.2324 180.843 20.4861 182.731 20.4861C184.618 20.4861 186.429 21.2324 187.768 22.5623C188.423 23.2537 188.934 24.0678 189.273 24.9577C189.612 25.8476 189.772 26.7957 189.743 27.7475C189.772 28.6994 189.612 29.6475 189.273 30.5374C188.934 31.4273 188.423 32.2413 187.768 32.9327C186.429 34.2626 184.618 35.009 182.731 35.009C180.843 35.009 179.033 34.2626 177.694 32.9327C177.039 32.2413 176.527 31.4273 176.188 30.5374C175.849 29.6475 175.69 28.6994 175.718 27.7475C175.69 26.7957 175.849 25.8476 176.188 24.9577C176.527 24.0678 177.039 23.2537 177.694 22.5623ZM179.595 31.3278C179.998 31.7533 180.483 32.0923 181.021 32.3239C181.559 32.5556 182.139 32.6751 182.725 32.6751C183.31 32.6751 183.89 32.5556 184.428 32.3239C184.966 32.0923 185.452 31.7533 185.854 31.3278C186.301 30.8485 186.648 30.2851 186.875 29.6704C187.101 29.0558 187.204 28.4021 187.175 27.7475C187.204 27.093 187.101 26.4393 186.875 25.8246C186.648 25.21 186.301 24.6466 185.854 24.1673C185.452 23.7417 184.966 23.4028 184.428 23.1711C183.89 22.9395 183.31 22.82 182.725 22.82C182.139 22.82 181.559 22.9395 181.021 23.1711C180.483 23.4028 179.998 23.7417 179.595 24.1673C179.148 24.6466 178.801 25.21 178.575 25.8246C178.348 26.4393 178.246 27.093 178.274 27.7475C178.249 28.4009 178.354 29.0527 178.583 29.6652C178.812 30.2777 179.16 30.8386 179.607 31.3154L179.595 31.3278ZM203.904 34.5624H201.434V32.6735H201.36C200.921 33.3909 200.299 33.9788 199.558 34.3772C198.789 34.8228 197.916 35.0571 197.027 35.0562C196.305 35.1056 195.582 34.9913 194.911 34.7219C194.24 34.4526 193.638 34.0351 193.151 33.5006C192.215 32.3177 191.745 30.8334 191.83 29.3278V20.9327H194.385V28.8586C194.385 31.4019 195.509 32.6735 197.755 32.6735C198.255 32.689 198.75 32.5851 199.201 32.3704C199.652 32.1556 200.045 31.8363 200.348 31.4389C201.01 30.5994 201.364 29.5575 201.348 28.4883V20.9327H203.904V34.5624ZM212.583 35.0068C211.716 35.0097 210.858 34.8247 210.07 34.4645C209.281 34.1043 208.58 33.5775 208.015 32.9204C206.735 31.5067 206.049 29.6539 206.101 27.7475C206.049 25.8412 206.735 23.9884 208.015 22.5747C208.58 21.9176 209.281 21.3908 210.07 21.0306C210.858 20.6704 211.716 20.4854 212.583 20.4883C213.554 20.4729 214.513 20.7022 215.373 21.1549C216.128 21.5349 216.767 22.1105 217.225 22.8216H217.336L217.225 20.9327V14.624H219.78V34.5624H217.311V32.6735H217.2C216.743 33.3846 216.103 33.9601 215.348 34.3401C214.496 34.7889 213.546 35.018 212.583 35.0068ZM213.002 32.6735C213.58 32.6819 214.153 32.5674 214.683 32.3375C215.213 32.1076 215.688 31.7676 216.077 31.3401C216.945 30.3517 217.388 29.0609 217.311 27.7475C217.388 26.4342 216.945 25.1434 216.077 24.1549C215.685 23.7251 215.209 23.3817 214.677 23.1467C214.146 22.9118 213.571 22.7904 212.99 22.7904C212.409 22.7904 211.834 22.9118 211.303 23.1467C210.771 23.3817 210.295 23.7251 209.904 24.1549C209.472 24.6411 209.141 25.2076 208.93 25.822C208.718 26.4364 208.629 27.0865 208.669 27.7352C208.629 28.3838 208.718 29.034 208.93 29.6484C209.141 30.2627 209.472 30.8293 209.904 31.3154C210.293 31.7506 210.771 32.097 211.305 32.3313C211.84 32.5656 212.419 32.6823 213.002 32.6735Z" fill="#BECBCF"/>
</g>
<defs>
<clipPath id="clip0_2452_2025">
<rect width="219.78" height="48" fill="white"/>
</clipPath>
</defs>
</svg>
