<svg width="181" height="48" viewBox="0 0 181 48" fill="none" xmlns="http://www.w3.org/2000/svg">
<path d="M53.9139 30.1875V17.2771H57.3302V22.0837H61.1835V17.2771H64.5998V30.1875H61.1835V25.0631H57.3302V30.1875H53.9139ZM70.1936 30.4258C69.1078 30.4258 68.3199 30.0617 67.83 29.3334C67.3401 28.5918 67.0952 27.6054 67.0952 26.3739V20.2565H70.5114V25.937C70.5114 26.5727 70.5909 26.9962 70.7498 27.2081C70.9219 27.42 71.1735 27.5259 71.5046 27.5259C71.8223 27.5259 72.0872 27.4597 72.2991 27.3273C72.5109 27.195 72.7228 26.9698 72.9347 26.652V20.2565H76.3509V30.1875H73.5701L73.3318 28.8767H73.2523C72.8552 29.3533 72.4116 29.7307 71.9216 30.0088C71.445 30.2868 70.869 30.4258 70.1936 30.4258ZM82.2722 34.2791C81.5175 34.2791 80.8223 34.193 80.1866 34.0209C79.5512 33.8619 79.0414 33.6037 78.6574 33.2462C78.2865 32.8888 78.1013 32.412 78.1013 31.8161C78.1013 31.035 78.5646 30.3993 79.4916 29.9094V29.8299C79.2377 29.6422 79.0163 29.414 78.8361 29.1547C78.6639 28.8767 78.5779 28.5322 78.5779 28.1218C78.5779 27.7775 78.6773 27.4398 78.8758 27.1089C79.0877 26.7778 79.3592 26.4932 79.6901 26.2548V26.1753C79.3326 25.937 79.0149 25.5993 78.7369 25.1623C78.4719 24.7121 78.3396 24.2023 78.3396 23.633C78.3396 22.812 78.5381 22.1368 78.9354 21.6071C79.3459 21.0641 79.8756 20.667 80.5243 20.4153C81.1733 20.1506 81.8618 20.018 82.59 20.018C83.1726 20.018 83.7023 20.0975 84.1789 20.2565H87.8734V22.7193H86.4433C86.4829 22.8386 86.5161 22.9908 86.5425 23.1761C86.5823 23.3615 86.6021 23.5535 86.6021 23.7521C86.6021 24.5334 86.4234 25.169 86.0659 25.659C85.7083 26.1356 85.2251 26.4866 84.6159 26.7116C84.0068 26.9368 83.3316 27.0493 82.59 27.0493C82.2591 27.0493 81.8882 27.003 81.4778 26.9102C81.3188 27.0558 81.2394 27.2478 81.2394 27.4862C81.2394 27.698 81.3454 27.8503 81.5573 27.9431C81.7823 28.0357 82.1398 28.082 82.6298 28.082H84.1194C85.3641 28.082 86.3241 28.2873 86.9994 28.6978C87.6879 29.0951 88.0322 29.7504 88.0322 30.6641C88.0322 31.3792 87.7939 32.0081 87.3173 32.5511C86.8538 33.0939 86.1917 33.5177 85.3309 33.8222C84.4703 34.1268 83.4506 34.2791 82.2722 34.2791ZM82.59 25.0233C82.9078 25.0233 83.166 24.9108 83.3646 24.6857C83.5633 24.4607 83.6625 24.1097 83.6625 23.633C83.6625 23.1695 83.5633 22.8318 83.3646 22.62C83.166 22.395 82.9078 22.2825 82.59 22.2825C82.2722 22.2825 82.014 22.395 81.8154 22.62C81.6167 22.8318 81.5175 23.1695 81.5175 23.633C81.5175 24.1097 81.6167 24.4607 81.8154 24.6857C82.014 24.9108 82.2722 25.0233 82.59 25.0233ZM82.8283 32.1737C83.3844 32.1737 83.8479 32.0876 84.2186 31.9155C84.5895 31.7565 84.7748 31.538 84.7748 31.26C84.7748 30.9952 84.6557 30.8297 84.4174 30.7635C84.1922 30.6973 83.8678 30.6641 83.4441 30.6641H82.6695C82.2722 30.6641 81.9677 30.651 81.7558 30.6243C81.5573 30.6112 81.3851 30.5848 81.2394 30.545C81.0011 30.7833 80.8819 31.0217 80.8819 31.26C80.8819 31.5778 81.0606 31.8095 81.4181 31.9552C81.789 32.1009 82.2591 32.1737 82.8283 32.1737ZM93.1149 34.2791C92.3601 34.2791 91.665 34.193 91.0294 34.0209C90.3938 33.8619 89.8839 33.6037 89.4999 33.2462C89.1293 32.8888 88.9438 32.412 88.9438 31.8161C88.9438 31.035 89.4073 30.3993 90.3341 29.9094V29.8299C90.0803 29.6422 89.8588 29.414 89.6788 29.1547C89.5065 28.8767 89.4204 28.5322 89.4204 28.1218C89.4204 27.7775 89.5198 27.4398 89.7184 27.1089C89.9303 26.7778 90.2018 26.4932 90.5329 26.2548V26.1753C90.1753 25.937 89.8575 25.5993 89.5794 25.1623C89.3145 24.7121 89.1821 24.2023 89.1821 23.633C89.1821 22.812 89.3809 22.1368 89.778 21.6071C90.1884 21.0641 90.7181 20.667 91.3671 20.4153C92.0158 20.1506 92.7043 20.018 93.4326 20.018C94.0153 20.018 94.545 20.0975 95.0216 20.2565H98.7159V22.7193H97.2859C97.3256 22.8386 97.3586 22.9908 97.3853 23.1761C97.4248 23.3615 97.4447 23.5535 97.4447 23.7521C97.4447 24.5334 97.266 25.169 96.9084 25.659C96.5511 26.1356 96.0677 26.4866 95.4585 26.7116C94.8495 26.9368 94.1741 27.0493 93.4326 27.0493C93.1016 27.0493 92.7309 27.003 92.3203 26.9102C92.1615 27.0558 92.082 27.2478 92.082 27.4862C92.082 27.698 92.1879 27.8503 92.3998 27.9431C92.625 28.0357 92.9824 28.082 93.4723 28.082H94.962C96.2066 28.082 97.1666 28.2873 97.842 28.6978C98.5305 29.0951 98.8748 29.7504 98.8748 30.6641C98.8748 31.3792 98.6364 32.0081 98.1598 32.5511C97.6963 33.0939 97.0343 33.5177 96.1736 33.8222C95.313 34.1268 94.2934 34.2791 93.1149 34.2791ZM93.4326 25.0233C93.7504 25.0233 94.0086 24.9108 94.2073 24.6857C94.4059 24.4607 94.5053 24.1097 94.5053 23.633C94.5053 23.1695 94.4059 22.8318 94.2073 22.62C94.0086 22.395 93.7504 22.2825 93.4326 22.2825C93.1149 22.2825 92.8566 22.395 92.658 22.62C92.4594 22.8318 92.3601 23.1695 92.3601 23.633C92.3601 24.1097 92.4594 24.4607 92.658 24.6857C92.8566 24.9108 93.1149 25.0233 93.4326 25.0233ZM93.6711 32.1737C94.2272 32.1737 94.6905 32.0876 95.0614 31.9155C95.4321 31.7565 95.6175 31.538 95.6175 31.26C95.6175 30.9952 95.4983 30.8297 95.2599 30.7635C95.0349 30.6973 94.7104 30.6641 94.2866 30.6641H93.5121C93.1149 30.6641 92.8103 30.651 92.5984 30.6243C92.3998 30.6112 92.2277 30.5848 92.082 30.545C91.8437 30.7833 91.7244 31.0217 91.7244 31.26C91.7244 31.5778 91.9033 31.8095 92.2609 31.9552C92.6316 32.1009 93.1016 32.1737 93.6711 32.1737ZM100.343 30.1875V20.2565H103.759V30.1875H100.343ZM102.051 19.025C101.495 19.025 101.044 18.8728 100.7 18.5683C100.356 18.2505 100.184 17.8333 100.184 17.3169C100.184 16.8005 100.356 16.3899 100.7 16.0854C101.044 15.7676 101.495 15.6088 102.051 15.6088C102.607 15.6088 103.057 15.7676 103.401 16.0854C103.746 16.3899 103.918 16.8005 103.918 17.3169C103.918 17.8333 103.746 18.2505 103.401 18.5683C103.057 18.8728 102.607 19.025 102.051 19.025ZM106.065 30.1875V20.2565H108.845L109.084 21.4481H109.163C109.56 21.0641 110.011 20.7332 110.514 20.4551C111.03 20.1637 111.626 20.018 112.301 20.018C113.4 20.018 114.188 20.3889 114.665 21.1305C115.155 21.8587 115.4 22.8386 115.4 24.0699V30.1875H111.983V24.507C111.983 23.8713 111.904 23.4476 111.745 23.2357C111.586 23.0238 111.335 22.9179 110.99 22.9179C110.673 22.9179 110.408 22.9841 110.196 23.1167C109.984 23.249 109.746 23.4345 109.481 23.6728V30.1875H106.065ZM121.24 34.2791C120.485 34.2791 119.79 34.193 119.154 34.0209C118.519 33.8619 118.009 33.6037 117.625 33.2462C117.254 32.8888 117.069 32.412 117.069 31.8161C117.069 31.035 117.532 30.3993 118.459 29.9094V29.8299C118.205 29.6422 117.984 29.414 117.804 29.1547C117.632 28.8767 117.545 28.5322 117.545 28.1218C117.545 27.7775 117.645 27.4398 117.843 27.1089C118.055 26.7778 118.327 26.4932 118.658 26.2548V26.1753C118.3 25.937 117.982 25.5993 117.704 25.1623C117.44 24.7121 117.307 24.2023 117.307 23.633C117.307 22.812 117.506 22.1368 117.903 21.6071C118.313 21.0641 118.843 20.667 119.492 20.4153C120.141 20.1506 120.829 20.018 121.558 20.018C122.14 20.018 122.67 20.0975 123.146 20.2565H126.841V22.7193H125.411C125.45 22.8386 125.484 22.9908 125.51 23.1761C125.55 23.3615 125.57 23.5535 125.57 23.7521C125.57 24.5334 125.391 25.169 125.033 25.659C124.676 26.1356 124.193 26.4866 123.584 26.7116C122.974 26.9368 122.299 27.0493 121.558 27.0493C121.226 27.0493 120.856 27.003 120.445 26.9102C120.286 27.0558 120.207 27.2478 120.207 27.4862C120.207 27.698 120.313 27.8503 120.525 27.9431C120.75 28.0357 121.107 28.082 121.597 28.082H123.087C124.332 28.082 125.292 28.2873 125.967 28.6978C126.656 29.0951 127 29.7504 127 30.6641C127 31.3792 126.761 32.0081 126.285 32.5511C125.821 33.0939 125.159 33.5177 124.298 33.8222C123.438 34.1268 122.418 34.2791 121.24 34.2791ZM121.558 25.0233C121.875 25.0233 122.134 24.9108 122.332 24.6857C122.531 24.4607 122.63 24.1097 122.63 23.633C122.63 23.1695 122.531 22.8318 122.332 22.62C122.134 22.395 121.875 22.2825 121.558 22.2825C121.24 22.2825 120.982 22.395 120.783 22.62C120.584 22.8318 120.485 23.1695 120.485 23.633C120.485 24.1097 120.584 24.4607 120.783 24.6857C120.982 24.9108 121.24 25.0233 121.558 25.0233ZM121.796 32.1737C122.352 32.1737 122.816 32.0876 123.186 31.9155C123.557 31.7565 123.742 31.538 123.742 31.26C123.742 30.9952 123.623 30.8297 123.385 30.7635C123.16 30.6973 122.835 30.6641 122.412 30.6641H121.637C121.24 30.6641 120.935 30.651 120.723 30.6243C120.525 30.6112 120.353 30.5848 120.207 30.545C119.969 30.7833 119.849 31.0217 119.849 31.26C119.849 31.5778 120.028 31.8095 120.386 31.9552C120.756 32.1009 121.226 32.1737 121.796 32.1737ZM132.722 30.1875V17.2771H141.143V20.1373H136.138V22.6001H140.428V25.4602H136.138V30.1875H132.722ZM144.879 30.4258C144.257 30.4258 143.721 30.2868 143.27 30.0088C142.841 29.7253 142.492 29.3353 142.258 28.8767C142.019 28.4132 141.9 27.9099 141.9 27.3671C141.9 26.3342 142.324 25.5266 143.171 24.9438C144.019 24.348 145.396 23.9508 147.302 23.7521C147.223 23.0636 146.759 22.7193 145.912 22.7193C145.555 22.7193 145.177 22.7921 144.78 22.9378C144.383 23.0702 143.926 23.2755 143.409 23.5535L142.218 21.329C142.92 20.9053 143.628 20.5809 144.343 20.3557C145.07 20.1309 145.826 20.0171 146.587 20.018C147.885 20.018 148.898 20.3889 149.626 21.1305C150.355 21.8587 150.719 23.0372 150.719 24.6658V30.1875H147.938L147.7 29.234H147.62C147.223 29.5916 146.799 29.883 146.349 30.108C145.912 30.3198 145.422 30.4258 144.879 30.4258ZM146.071 27.804C146.349 27.804 146.581 27.7443 146.766 27.6253C146.951 27.4929 147.13 27.3273 147.302 27.1288V25.778C146.495 25.8973 145.932 26.076 145.614 26.3143C145.31 26.5528 145.157 26.811 145.157 27.089C145.157 27.5657 145.462 27.804 146.071 27.804ZM157.435 30.4258C156.495 30.4258 155.647 30.2205 154.892 29.81C154.138 29.3996 153.535 28.8103 153.085 28.0423C152.648 27.2612 152.429 26.321 152.429 25.2219C152.429 24.123 152.675 23.1894 153.164 22.4214C153.668 21.6401 154.323 21.0444 155.131 20.6338C155.938 20.2233 156.812 20.018 157.752 20.018C158.348 20.018 158.885 20.1108 159.361 20.2961C159.851 20.4815 160.282 20.7332 160.652 21.051L159.063 23.2357C158.852 23.0505 158.659 22.9247 158.487 22.8585C158.316 22.7923 158.135 22.7587 157.951 22.7591C157.316 22.7591 156.819 22.9841 156.461 23.4345C156.104 23.8713 155.925 24.4672 155.925 25.2219C155.925 25.9768 156.111 26.5792 156.481 27.0294C156.852 27.4663 157.302 27.6849 157.832 27.6849C158.11 27.6849 158.381 27.6253 158.646 27.506C158.918 27.3776 159.177 27.2246 159.421 27.0493L160.732 29.2738C160.242 29.7108 159.699 30.0153 159.103 30.1875C158.507 30.3463 157.951 30.4258 157.435 30.4258ZM166.321 30.4258C165.354 30.4258 164.48 30.2205 163.699 29.81C162.931 29.3996 162.322 28.8103 161.872 28.0423C161.422 27.2612 161.197 26.321 161.197 25.2219C161.197 24.1494 161.422 23.2292 161.872 22.4612C162.335 21.6798 162.931 21.0774 163.66 20.6537C164.388 20.2299 165.156 20.018 165.964 20.018C166.943 20.018 167.751 20.2367 168.387 20.6735C169.036 21.0973 169.512 21.6733 169.817 22.4015C170.135 23.1298 170.294 23.9375 170.294 24.8248C170.294 25.116 170.274 25.4008 170.234 25.6788C170.207 25.9436 170.181 26.1356 170.154 26.2548H164.494C164.653 26.8507 164.937 27.2677 165.348 27.506C165.758 27.7312 166.242 27.8437 166.798 27.8437C167.433 27.8437 168.109 27.6452 168.824 27.2478L169.936 29.2738C169.406 29.6445 168.81 29.9293 168.148 30.1278C167.486 30.3264 166.877 30.4258 166.321 30.4258ZM164.454 24.0302H167.394C167.394 23.6462 167.294 23.3152 167.096 23.0372C166.91 22.7458 166.559 22.6001 166.043 22.6001C165.672 22.6001 165.341 22.7128 165.05 22.9378C164.758 23.163 164.56 23.5271 164.454 24.0302Z" fill="#BECBCF"/>
<path d="M46.5709 32.0796C46.4702 31.6995 46.3071 31.339 46.0883 31.0123C46.1351 30.8402 46.1707 30.6655 46.1947 30.489C46.35 29.3685 45.9617 28.3427 45.2295 27.5488C44.8329 27.1153 44.4079 26.8292 43.9577 26.6535C44.2532 25.3892 44.4028 24.0953 44.4036 22.7968C44.4036 22.204 44.37 21.6231 44.3137 21.0508C44.2843 20.7651 44.2489 20.4799 44.2074 20.1956C44.0784 19.357 43.8872 18.529 43.6352 17.7188C43.47 17.1864 43.2789 16.6624 43.0627 16.1486C42.7386 15.3878 42.36 14.6513 41.9301 13.9448C41.6479 13.4748 41.3407 13.0203 41.0098 12.5833C40.8476 12.3626 40.6787 12.1472 40.5028 11.9372C39.9819 11.3041 39.4161 10.7096 38.8091 10.1584C38.6077 9.97311 38.4006 9.79422 38.1878 9.62196C37.9783 9.44725 37.7642 9.27812 37.5458 9.11477C37.1061 8.78755 36.6516 8.48054 36.1839 8.19471C33.6 6.62534 30.5698 5.72552 27.3311 5.72552C17.9016 5.72552 10.2589 13.3684 10.2589 22.7976C10.2587 24.1123 10.411 25.4226 10.7128 26.7021C10.3078 26.878 9.91952 27.1519 9.55971 27.5485C8.82771 28.3418 8.43921 29.364 8.59465 30.4843C8.61808 30.6625 8.65371 30.8387 8.70096 31.012C8.48228 31.3388 8.31921 31.6995 8.21833 32.0796C7.99333 32.9348 8.0674 33.706 8.35333 34.3815C8.04265 35.2648 8.12027 36.2053 8.52508 37.023C8.81946 37.6202 9.24077 38.082 9.75996 38.4951C10.3774 38.9858 11.1503 39.403 12.0827 39.8029C13.195 40.2773 14.5525 40.723 15.1699 40.8865C16.7648 41.2995 18.294 41.5613 19.8441 41.5738C22.0521 41.5945 23.9537 41.0751 25.3153 39.7463C25.9841 39.8282 26.6573 39.8693 27.3311 39.8691C28.0431 39.8676 28.7542 39.8226 29.4607 39.7348C30.819 41.0721 32.7279 41.5961 34.9442 41.575C36.4939 41.5628 38.0231 41.301 39.6139 40.8874C40.2354 40.7239 41.5926 40.2782 42.7054 39.804C43.6378 39.4031 44.4105 38.9861 45.0322 38.496C45.5475 38.0831 45.9684 37.6211 46.263 37.024C46.6719 36.2063 46.7456 35.2658 46.4389 34.3825C46.7222 33.7069 46.7957 32.934 46.5709 32.0796ZM44.9886 34.3243C45.3019 34.9189 45.3219 35.5907 45.0454 36.2164C44.6261 37.1648 43.5847 37.9116 41.5622 38.7135C40.3046 39.2125 39.1528 39.5312 39.1427 39.5342C37.4792 39.9656 35.9747 40.1846 34.6723 40.1846C32.5157 40.1846 30.9111 39.5897 29.8933 38.4145C28.1723 38.7075 26.4148 38.7175 24.6906 38.4439C23.6717 39.5996 22.0759 40.1846 19.9374 40.1846C18.6349 40.1846 17.1306 39.9656 15.4671 39.5342C15.4568 39.5312 14.3057 39.2125 13.0476 38.7135C11.025 37.9116 9.98346 37.1651 9.5644 36.2164C9.28783 35.5907 9.3079 34.9189 9.62121 34.3243C9.65027 34.2692 9.68121 34.2152 9.7144 34.1633C9.5266 33.8813 9.40065 33.5625 9.3448 33.2284C9.28896 32.8943 9.3045 32.5519 9.3904 32.2241C9.5149 31.7513 9.77215 31.3579 10.1213 31.0753C9.95316 30.799 9.84281 30.4915 9.7969 30.1712C9.6964 29.4748 9.9274 28.7794 10.4475 28.2126C10.8523 27.7714 11.4248 27.5286 12.0587 27.5286H12.0756C11.5977 25.9969 11.3554 24.4015 11.3569 22.797C11.3569 14.046 18.4513 6.9514 27.2033 6.9514C35.9554 6.9514 43.0496 14.0455 43.0496 22.797C43.0508 24.4058 42.8068 26.0053 42.3261 27.5406C42.4026 27.5331 42.4776 27.5292 42.5511 27.5292C43.1848 27.5292 43.7574 27.7718 44.1622 28.213C44.682 28.7794 44.9136 29.4754 44.8129 30.1716C44.7669 30.4918 44.6567 30.7995 44.4885 31.0759C44.8376 31.3583 45.0949 31.7516 45.2194 32.2247C45.3051 32.5525 45.3206 32.8946 45.2648 33.229C45.2089 33.5631 45.0831 33.8816 44.8954 34.1638C44.9286 34.2152 44.9599 34.2692 44.9886 34.3243Z" fill="white"/>
<path d="M44.8954 34.1638C45.0831 33.8816 45.2089 33.563 45.2648 33.2289C45.3206 32.8946 45.3051 32.5524 45.2194 32.2247C45.0949 31.7518 44.8376 31.3584 44.4885 31.0759C44.6565 30.7995 44.767 30.492 44.8129 30.1717C44.9134 29.4754 44.6824 28.7799 44.1623 28.2131C43.7575 27.7719 43.1848 27.5291 42.5511 27.5291C42.4774 27.5291 42.4026 27.5329 42.3261 27.5405C42.8063 26.0053 43.0498 24.4057 43.0483 22.7972C43.0483 14.0463 35.9539 6.95154 27.2027 6.95154C18.4515 6.95154 11.3563 14.0456 11.3563 22.7972C11.3548 24.4016 11.5971 25.997 12.075 27.5287H12.0581C11.4244 27.5287 10.852 27.7715 10.4471 28.2127C9.92739 28.7792 9.69602 29.475 9.79652 30.1714C9.8424 30.4916 9.95274 30.7991 10.1209 31.0755C9.77177 31.358 9.51452 31.7514 9.3902 32.2245C9.30437 32.5522 9.28888 32.8946 9.34479 33.2289C9.4007 33.563 9.52672 33.8818 9.71458 34.1638C9.68102 34.2157 9.65027 34.2697 9.62139 34.3249C9.30827 34.9194 9.28802 35.5912 9.56458 36.2169C9.98364 37.1651 11.0252 37.9123 13.0478 38.714C14.3053 39.213 15.4571 39.5317 15.4673 39.5347C17.1308 39.9662 18.6351 40.1854 19.9375 40.1854C22.0761 40.1854 23.6717 39.6004 24.6908 38.4444C26.415 38.718 28.1725 38.708 29.8935 38.415C30.9111 39.5902 32.5159 40.1854 34.6725 40.1854C35.9749 40.1854 37.4794 39.9662 39.1429 39.5347C39.153 39.5317 40.3043 39.213 41.5624 38.714C43.585 37.9123 44.6265 37.1651 45.0456 36.2169C45.3221 35.5912 45.3021 34.9194 44.9888 34.3249C44.9601 34.2692 44.9286 34.2154 44.8954 34.1638ZM23.9616 36.635C23.8738 36.7886 23.7799 36.9384 23.6798 37.0841C23.4163 37.4698 23.0698 37.7644 22.6678 37.9835C21.8989 38.4026 20.926 38.5492 19.9373 38.5492C18.3758 38.5492 16.7749 38.1838 15.8775 37.9509C15.8335 37.9395 10.3774 36.3984 11.0681 35.0867C11.1844 34.8662 11.3758 34.778 11.6166 34.778C12.5891 34.778 14.3601 36.2263 15.1213 36.2263C15.2912 36.2263 15.4112 36.1537 15.4601 35.9773C15.7845 34.8139 10.5302 34.3249 10.9727 32.6404C11.0509 32.3422 11.2626 32.2213 11.5605 32.2213C12.8462 32.2211 15.7322 34.4824 16.3358 34.4824C16.3821 34.4824 16.4153 34.4689 16.4333 34.4404L16.4411 34.4274C16.7243 33.9596 16.5619 33.6195 14.6209 32.4307L14.4345 32.3173C12.2989 31.0245 10.7996 30.2467 11.6524 29.3186C11.7505 29.2114 11.8894 29.1639 12.0583 29.1639C12.2588 29.1639 12.5012 29.231 12.7682 29.3434C13.8962 29.819 15.4596 31.1164 16.1126 31.6822C16.3052 31.8499 16.4186 31.9522 16.4186 31.9522C16.4186 31.9522 17.2455 32.8121 17.7456 32.8121C17.8607 32.8121 17.9582 32.7669 18.0244 32.6546C18.3791 32.0569 14.7313 29.2927 14.5256 28.1524C14.3863 27.3795 14.6235 26.9882 15.0625 26.9882C15.271 26.9882 15.5256 27.0768 15.8066 27.2552C16.6785 27.8087 18.3619 30.7014 18.9782 31.8266C19.1848 32.2039 19.5375 32.3632 19.8553 32.3632C20.4859 32.3632 20.9788 31.7364 19.9131 30.9399C18.3113 29.7412 18.8734 27.7822 19.6378 27.6617C19.6705 27.6566 19.7035 27.654 19.7363 27.6538C20.4315 27.6538 20.7383 28.8519 20.7383 28.8519C20.7383 28.8519 21.637 31.109 23.181 32.6518C24.5822 34.0522 24.7778 35.2016 23.9616 36.635ZM28.9545 36.8994L28.8745 36.909L28.7378 36.9247C28.666 36.932 28.5941 36.9392 28.522 36.9459L28.4515 36.9523L28.3873 36.9577L28.296 36.965C28.2625 36.9675 28.2289 36.9701 28.1953 36.9722L28.0948 36.9789L28.0727 36.9802L27.9936 36.9849L27.96 36.9866L27.8663 36.9913L27.7573 36.9958L27.6583 36.9992L27.5923 37.001H27.559C27.5383 37.001 27.5179 37.0022 27.4973 37.0023H27.4645C27.4438 37.0023 27.4234 37.0024 27.4028 37.0035L27.319 37.0044H27.2016C27.1095 37.0044 27.0178 37.0035 26.9261 37.0018L26.8519 37.0001C26.8309 37.0001 26.8097 36.999 26.7887 36.9984L26.7101 36.996L26.6123 36.9922L26.5243 36.9885L26.5015 36.9875L26.4176 36.983C26.3944 36.9817 26.3711 36.9806 26.3481 36.9791L26.2939 36.9759C26.2258 36.9716 26.1578 36.9667 26.0897 36.9615L26.0185 36.9559L25.9285 36.9482L25.8233 36.9384C25.7646 36.933 25.7059 36.927 25.6472 36.9204H25.6444C26.5013 35.0089 26.068 33.2237 24.3364 31.4934C23.2009 30.3594 22.4453 28.6845 22.2887 28.3168C21.9715 27.2284 21.1316 26.0184 19.7372 26.0184C19.6193 26.0186 19.5017 26.028 19.3853 26.0464C18.7742 26.1424 18.2402 26.4941 17.8592 27.0232C17.4476 26.5112 17.0473 26.1041 16.6855 25.874C16.1398 25.5283 15.5955 25.3528 15.0649 25.3528C14.403 25.3528 13.8111 25.6247 13.3986 26.1178L13.3883 26.1304L13.365 26.0327L13.3641 26.0285C13.2856 25.6929 13.2197 25.3543 13.1665 25.0138C13.1665 25.0114 13.1665 25.0091 13.1653 25.0069L13.1537 24.9298C13.1474 24.8882 13.1413 24.8464 13.1353 24.8047C13.1305 24.77 13.1256 24.7354 13.1211 24.7009C13.1166 24.6664 13.1117 24.6317 13.1076 24.597C13.1031 24.5621 13.099 24.5274 13.0948 24.4927C13.0909 24.4597 13.0871 24.4267 13.0834 24.3937L13.0823 24.3853C13.0654 24.233 13.0509 24.0806 13.0388 23.928L13.0322 23.8397C13.0303 23.8155 13.0286 23.7911 13.0271 23.7665C13.0271 23.7609 13.0264 23.7551 13.026 23.7499L13.0198 23.652C13.0176 23.6165 13.0159 23.5811 13.014 23.5457C13.0121 23.5104 13.0103 23.475 13.0088 23.4394L13.005 23.3465L13.0039 23.3184L13.0011 23.2325L12.999 23.1598C12.999 23.1307 12.9977 23.1015 12.9971 23.0724L12.9956 22.9807C12.9953 22.9502 12.9956 22.9198 12.9949 22.8892C12.994 22.8585 12.9949 22.8279 12.9949 22.7972C12.9949 14.9499 19.357 8.58783 27.205 8.58783C35.053 8.58783 41.4148 14.9495 41.4148 22.7972V22.9807C41.4148 23.0113 41.4141 23.042 41.4133 23.0724C41.4133 23.0979 41.4124 23.1228 41.4116 23.1483C41.4116 23.171 41.4107 23.1935 41.4098 23.2155C41.4098 23.2442 41.4081 23.2727 41.4071 23.3014V23.3038C41.4047 23.366 41.4021 23.4283 41.3995 23.4905L41.3983 23.5112L41.3935 23.6042L41.389 23.6779C41.3785 23.8524 41.3648 24.027 41.3481 24.2012V24.2036C41.3451 24.2362 41.3417 24.269 41.3381 24.3017C41.3299 24.3776 41.3215 24.4535 41.313 24.5295L41.3035 24.6058L41.2916 24.6954C41.2875 24.7282 41.283 24.7609 41.2783 24.7935C41.2733 24.83 41.2678 24.8664 41.2626 24.9028L41.2495 24.9887L41.2341 25.0862C41.2288 25.1186 41.2236 25.1509 41.2174 25.1833C41.211 25.2155 41.2061 25.2478 41.2005 25.2802C41.1893 25.3447 41.1776 25.409 41.1651 25.4734C41.1401 25.6014 41.1141 25.7291 41.0865 25.8566C41.0796 25.8883 41.0725 25.9202 41.0651 25.9519C40.6652 25.5632 40.1357 25.3515 39.5515 25.3515C39.0214 25.3515 38.4765 25.5268 37.9311 25.8727C37.569 26.1026 37.1691 26.5099 36.7571 27.0219C36.3756 26.4926 35.8416 26.141 35.2313 26.0449C35.1148 26.0267 34.9971 26.0173 34.8791 26.0171C33.4843 26.0171 32.6451 27.227 32.3276 28.3155C32.1703 28.6832 31.4147 30.3579 30.2779 31.4938C28.5476 33.2184 28.111 34.9957 28.9545 36.8994ZM43.6245 33.0729L43.6189 33.0896C43.615 33.1003 43.611 33.111 43.6067 33.1215C43.6 33.1374 43.5928 33.153 43.5853 33.1685C43.5671 33.2057 43.5465 33.2417 43.5238 33.2762C43.4925 33.3229 43.4582 33.3675 43.4209 33.4095C43.4123 33.4192 43.404 33.4288 43.3943 33.4384C43.3811 33.4528 43.3671 33.4669 43.3532 33.4809C43.1006 33.7312 42.7159 33.9504 42.2809 34.1518C42.2316 34.1741 42.1817 34.1964 42.1311 34.2187L42.0808 34.241C42.0473 34.2559 42.0139 34.2707 41.9786 34.2851C41.9443 34.2997 41.9098 34.3142 41.8753 34.3284L41.7707 34.3717C41.526 34.4724 41.2753 34.5682 41.0306 34.6631L40.9262 34.7036L40.8227 34.7441C40.7541 34.7709 40.6862 34.7977 40.6193 34.8245L40.5197 34.8647L40.422 34.9048L40.3738 34.9249C40.342 34.9384 40.3105 34.9515 40.2793 34.965C39.5597 35.2736 39.0422 35.5877 39.151 35.9775C39.154 35.9885 39.1573 35.999 39.1611 36.0092C39.1708 36.038 39.1841 36.0654 39.2006 36.0909C39.2104 36.1063 39.2216 36.1207 39.2342 36.1339C39.3621 36.2666 39.5948 36.2456 39.8882 36.1402C39.912 36.1316 39.9364 36.1224 39.961 36.1127C39.9778 36.1063 39.9945 36.0995 40.0114 36.0928L40.0367 36.0821C40.1038 36.0536 40.1749 36.0219 40.2476 35.9872C40.2658 35.9788 40.2842 35.9705 40.3026 35.9608C40.6613 35.7855 41.068 35.549 41.4715 35.334C41.5333 35.3004 41.5954 35.2683 41.6571 35.2365C41.758 35.1842 41.8598 35.1337 41.9625 35.0855C42.3446 34.9059 42.7037 34.7784 42.9926 34.7784C43.128 34.7784 43.2478 34.8062 43.3474 34.8699L43.3641 34.881C43.4145 34.9166 43.4584 34.9603 43.4942 35.0105C43.5025 35.0224 43.5111 35.0345 43.5184 35.0471C43.5263 35.06 43.5338 35.0734 43.5409 35.0869C43.6836 35.3576 43.5641 35.6383 43.2848 35.9134C43.0165 36.1774 42.5991 36.4363 42.1245 36.6761C42.0895 36.6939 42.054 36.7117 42.0184 36.729C40.6063 37.4224 38.7576 37.9445 38.7317 37.9511C38.239 38.0788 37.5343 38.2466 36.7406 38.372L36.6231 38.3902L36.604 38.393C36.424 38.42 36.2434 38.4439 36.0625 38.4645L36.0458 38.4662C35.7167 38.5037 35.3792 38.5309 35.0411 38.5423H35.0361C34.9146 38.5468 34.7933 38.5489 34.6718 38.5489H34.5319C34.3466 38.5462 34.1616 38.538 33.9769 38.5237C33.9726 38.5237 33.9681 38.5237 33.9636 38.5228C33.8976 38.5177 33.8314 38.5115 33.7656 38.5042C33.6523 38.492 33.5393 38.477 33.4266 38.4594C33.3827 38.4521 33.3358 38.4444 33.2906 38.4365C33.27 38.4328 33.2496 38.429 33.2291 38.4249L33.2243 38.424C33.1592 38.4116 33.0945 38.3979 33.03 38.3831C32.9927 38.3747 32.9552 38.3662 32.9183 38.3563L32.8961 38.3505C32.8778 38.346 32.8598 38.3411 32.8418 38.3362L32.8318 38.3336L32.7739 38.3169C32.7529 38.3109 32.7321 38.3047 32.7111 38.2985L32.7036 38.2963L32.649 38.2796C32.6284 38.2732 32.608 38.2665 32.5875 38.2599C32.5706 38.2543 32.554 38.2485 32.5371 38.243L32.5001 38.2301C32.4645 38.2177 32.4293 38.2046 32.394 38.1911L32.3606 38.1782L32.3331 38.1671C32.28 38.1457 32.2271 38.1234 32.1748 38.1L32.14 38.0833L32.1341 38.0807C32.1218 38.0749 32.1096 38.069 32.0972 38.0638C32.073 38.0522 32.049 38.0402 32.0252 38.028L32.0181 38.0244L31.9836 38.0062C31.9223 37.9744 31.8621 37.9402 31.8032 37.9039L31.771 37.8842C31.7543 37.874 31.7391 37.8637 31.7231 37.8534L31.6811 37.8255C31.666 37.8153 31.6508 37.805 31.636 37.7944L31.609 37.7752C31.5805 37.7548 31.5525 37.734 31.525 37.7124C31.5103 37.7012 31.4959 37.6895 31.4815 37.6789C31.4494 37.6532 31.4181 37.6267 31.3871 37.5995L31.3858 37.5984C31.3556 37.5724 31.3262 37.5454 31.2975 37.5178L31.296 37.5159C31.281 37.5017 31.2664 37.4874 31.2518 37.4726C31.2373 37.4578 31.2227 37.4432 31.2086 37.4284C31.1944 37.4134 31.1801 37.3982 31.1663 37.3826C31.1528 37.368 31.1396 37.3532 31.1265 37.3382L31.122 37.3331C31.0543 37.2545 30.991 37.1722 30.9323 37.0865L30.909 37.0522C30.8936 37.0295 30.8785 37.0067 30.8635 36.9838L30.8192 36.9157C30.7975 36.8825 30.7763 36.849 30.7556 36.8152C30.7408 36.7912 30.7262 36.7672 30.7118 36.743C30.6996 36.7224 30.6874 36.702 30.6758 36.6817C30.6692 36.6707 30.663 36.6594 30.6568 36.6482C30.6506 36.6365 30.6433 36.6247 30.6368 36.6129L30.6263 36.5944C30.6227 36.5882 30.6216 36.5863 30.6197 36.5822C30.607 36.5599 30.5946 36.5372 30.5826 36.5141C30.5771 36.5042 30.5717 36.494 30.5659 36.4841L30.549 36.4519L30.5323 36.4198L30.5001 36.3547C30.4948 36.344 30.4898 36.3333 30.4847 36.3227C30.4736 36.2996 30.4631 36.2769 30.4526 36.2542C30.4485 36.245 30.4442 36.2359 30.4405 36.2267C30.426 36.1954 30.4123 36.1637 30.3994 36.1316C30.3906 36.1104 30.3825 36.0894 30.3739 36.0684C30.3497 36.0065 30.327 35.9441 30.3062 35.8809C30.3 35.8622 30.2938 35.8436 30.2884 35.8249C30.2749 35.7823 30.2627 35.7394 30.2518 35.696C30.2385 35.6456 30.2267 35.5946 30.2168 35.5434C30.2104 35.5132 30.2048 35.4829 30.2001 35.4523C30.195 35.4221 30.1907 35.3919 30.1871 35.3619C30.1795 35.3021 30.174 35.2421 30.1708 35.1819C30.1708 35.172 30.1699 35.1619 30.1697 35.1519C30.1688 35.132 30.1682 35.1122 30.168 35.0923C30.1575 34.2913 30.5631 33.5209 31.4299 32.6544C32.9738 31.1119 33.8726 28.8545 33.8726 28.8545C33.8726 28.8545 33.8968 28.7599 33.9473 28.6237C33.9641 28.5785 33.9818 28.5335 34.0003 28.4891C34.0215 28.4389 34.0442 28.3892 34.0686 28.3404L34.0757 28.3262C34.107 28.2639 34.141 28.2034 34.1779 28.1443C34.1863 28.1306 34.1946 28.1169 34.2043 28.1034C34.2317 28.0625 34.2608 28.023 34.2913 27.9845C34.315 27.9551 34.3401 27.9266 34.3665 27.8996C34.4561 27.8074 34.5583 27.732 34.674 27.6917L34.6886 27.687C34.6984 27.6838 34.708 27.6808 34.7179 27.678C34.7295 27.675 34.7411 27.6722 34.7528 27.6697L34.758 27.6688C34.7826 27.6639 34.8071 27.6605 34.8321 27.6589H34.8343C34.8473 27.6589 34.8602 27.6575 34.8735 27.6575C34.9067 27.6577 34.9397 27.6604 34.9725 27.6654C35.1116 27.6874 35.2442 27.7702 35.3582 27.8981L35.3736 27.9161C35.4107 27.9596 35.4445 28.0061 35.4745 28.0549C35.497 28.091 35.5181 28.1291 35.5382 28.169C35.5463 28.1859 35.554 28.2013 35.5616 28.2178C35.5654 28.2262 35.5691 28.2345 35.5727 28.2431C35.5802 28.2598 35.5871 28.2767 35.5941 28.2943C35.6333 28.3948 35.6636 28.4985 35.685 28.6042C35.7077 28.7184 35.7208 28.8343 35.7246 28.9507C35.7259 29.0019 35.7259 29.0537 35.7246 29.1062C35.7236 29.126 35.7227 29.1461 35.7212 29.1662C35.7058 29.3891 35.6573 29.6085 35.577 29.8172C35.569 29.8378 35.5601 29.8588 35.5519 29.8798C35.5116 29.9762 35.4647 30.0695 35.4118 30.1595C35.3816 30.2109 35.349 30.2619 35.3141 30.3125L35.2928 30.3429C35.2101 30.4584 35.1178 30.5668 35.017 30.6669C34.9176 30.7665 34.8111 30.8585 34.6984 30.9427C34.5853 31.0262 34.4794 31.1188 34.3815 31.2195C34.0997 31.5154 34.0341 31.7762 34.0975 31.974C34.105 31.9963 34.1138 32.0182 34.1239 32.0394C34.1473 32.0854 34.1777 32.1275 34.2141 32.1643L34.224 32.1742C34.2343 32.1842 34.2452 32.1937 34.2563 32.2029L34.2675 32.2121C34.2949 32.2331 34.3238 32.2519 34.354 32.2682C34.3626 32.2729 34.3706 32.2775 34.3806 32.282C34.422 32.3027 34.4653 32.3192 34.51 32.3317L34.5223 32.3349L34.539 32.3394L34.5536 32.343L34.5692 32.3464L34.5848 32.3495L34.5996 32.352C34.6106 32.354 34.6219 32.3557 34.633 32.3572L34.6438 32.3587L34.6631 32.3608L34.6751 32.3619L34.695 32.3634H34.7065L34.7271 32.3644H34.7921L34.8107 32.3634L34.8321 32.3621L34.8581 32.3597L34.8825 32.3567C34.888 32.3567 34.8936 32.3552 34.8992 32.3542C34.9851 32.3417 35.0687 32.3175 35.1478 32.2822C35.1647 32.2751 35.1814 32.2672 35.1968 32.259C35.2298 32.2425 35.2618 32.2239 35.2926 32.2035C35.3355 32.1754 35.376 32.1437 35.4141 32.1092L35.4405 32.084C35.4446 32.0799 35.449 32.076 35.4529 32.0717C35.4788 32.0458 35.5031 32.0184 35.5258 31.9897C35.566 31.9391 35.6016 31.8853 35.6325 31.8287C35.9995 31.1615 36.384 30.5042 36.7858 29.8575L36.841 29.7692L36.8966 29.6807C36.9246 29.636 36.9525 29.5918 36.9805 29.5481L37.0088 29.504L37.0652 29.4161C37.141 29.2989 37.2169 29.183 37.2934 29.0683L37.3506 28.9828C37.4653 28.8129 37.5799 28.6475 37.6931 28.4902L37.7498 28.4126C37.873 28.2424 38.0014 28.076 38.1347 27.9137L38.1878 27.8503C38.1964 27.8396 38.2045 27.8293 38.214 27.819L38.266 27.7588C38.2746 27.7489 38.2828 27.7391 38.2918 27.7295L38.3421 27.6727L38.3674 27.6454C38.3918 27.6189 38.4165 27.5929 38.4416 27.567C38.4585 27.5503 38.4741 27.5334 38.4904 27.5178C38.5855 27.4205 38.6903 27.3334 38.8033 27.2578L38.8294 27.2411L38.8558 27.2242C38.8727 27.2137 38.8898 27.2036 38.9072 27.194C39.3505 26.9426 39.7176 26.924 39.9287 27.1352C40.0568 27.2632 40.1275 27.4753 40.1237 27.7702C40.1237 27.7834 40.1237 27.7963 40.1226 27.8098V27.8244C40.1226 27.8377 40.1215 27.8514 40.1205 27.8651C40.1205 27.8818 40.1185 27.8987 40.1168 27.9154C40.1151 27.9322 40.1143 27.945 40.1126 27.9598C40.1126 27.9641 40.1117 27.9684 40.1111 27.9727C40.1098 27.9859 40.1081 27.9992 40.1065 28.0123C40.1065 28.0164 40.1065 28.0204 40.1048 28.0245C40.1029 28.0423 40.1003 28.0601 40.0971 28.0777C40.095 28.094 40.0924 28.1104 40.0892 28.1267C40.0879 28.136 40.086 28.1452 40.0845 28.1546C40.0796 28.1812 40.0733 28.2077 40.0656 28.2335C40.0511 28.2819 40.0335 28.3294 40.0127 28.3755C40.0037 28.3955 39.9941 28.4156 39.9844 28.4353C39.9641 28.476 39.9413 28.5176 39.9161 28.5607C39.9036 28.5819 39.8906 28.6039 39.8768 28.6258L39.8558 28.6592C39.8344 28.6927 39.8121 28.7267 39.7888 28.761C39.7656 28.7953 39.7406 28.8304 39.7138 28.8658C39.6791 28.913 39.6426 28.9612 39.604 29.01L39.5747 29.0469C39.492 29.1499 39.4073 29.2511 39.3206 29.3507L39.2518 29.4285L39.2168 29.4679C39.169 29.5213 39.121 29.5744 39.0726 29.627L39.0355 29.6672C39.0109 29.6938 38.9852 29.7208 38.9606 29.7476C38.9355 29.7748 38.91 29.8018 38.8845 29.8288L38.8073 29.9102L38.7291 29.9917C38.703 30.0189 38.6768 30.0465 38.6503 30.0737L38.4911 30.2377C37.7308 31.0175 36.9296 31.7947 36.6585 32.2792C36.6405 32.3109 36.6242 32.3434 36.6094 32.3765C36.571 32.4647 36.5548 32.54 36.5657 32.601C36.5693 32.621 36.5764 32.6404 36.5867 32.6578C36.6021 32.6842 36.6206 32.7086 36.642 32.7304C36.652 32.7401 36.6623 32.7493 36.6735 32.7575C36.7292 32.7973 36.7967 32.8177 36.8651 32.8157H36.8865L36.9085 32.8142L36.9306 32.8115L36.9488 32.8089C36.9512 32.8087 36.9536 32.8082 36.9561 32.8076L36.9728 32.8044L36.9773 32.8033L36.9956 32.7993L37.0022 32.7977L37.0219 32.7926L37.0453 32.7857C37.0607 32.781 37.0761 32.7757 37.0918 32.7699C37.1258 32.7579 37.159 32.744 37.1914 32.7285C37.1996 32.7245 37.2081 32.7208 37.2161 32.7165L37.2411 32.7041C37.2737 32.6876 37.3061 32.6698 37.3388 32.6505C37.3648 32.6351 37.3907 32.6194 37.4166 32.6027L37.4417 32.586C37.45 32.5807 37.4584 32.5753 37.4666 32.5691L37.4916 32.5524L37.5047 32.5432L37.5407 32.5181C37.5743 32.4948 37.6056 32.471 37.6375 32.4469L37.6403 32.4448L37.6905 32.4058C37.7593 32.3514 37.8248 32.2967 37.8838 32.2451L37.9232 32.2104L37.927 32.207L37.9474 32.1889C37.9958 32.1455 38.0389 32.105 38.0749 32.0715L38.0895 32.0572L38.125 32.0237L38.1461 32.003L38.1535 31.9955L38.1555 31.9935C38.1735 31.9755 38.1735 31.9755 38.1915 31.9573L38.193 31.9558L38.1998 31.9498C38.2018 31.9475 38.2046 31.9453 38.2078 31.9425L38.2105 31.94L38.2176 31.9337L38.2556 31.9001L38.277 31.8808C38.2875 31.8718 38.299 31.8615 38.3106 31.8504L38.3363 31.8279C38.3408 31.8242 38.3453 31.8199 38.35 31.8157L38.3768 31.7923L38.4163 31.7578L38.4371 31.7396C38.5187 31.6685 38.6181 31.5829 38.7319 31.4863L38.7786 31.4469L38.8558 31.3822L38.9346 31.3162C39.0377 31.2307 39.1487 31.1398 39.2661 31.0453L39.3431 30.9834C39.4088 30.9313 39.4763 30.8779 39.5445 30.8242C39.5719 30.8027 39.5998 30.7811 39.6283 30.7597C39.6983 30.7057 39.7686 30.6519 39.8391 30.5989C40 30.4774 40.1659 30.3557 40.3337 30.237L40.4059 30.1869C40.4561 30.152 40.5064 30.1174 40.5568 30.0834L40.6024 30.0525C40.6926 29.9917 40.7835 29.9323 40.8752 29.8742L40.9208 29.8455L40.966 29.8174C41.0111 29.7894 41.0563 29.7617 41.101 29.7349L41.1458 29.7082L41.2356 29.6559C41.265 29.6388 41.2943 29.6222 41.3235 29.6057L41.3411 29.5957L41.4109 29.5577C41.4398 29.5419 41.4688 29.5267 41.4975 29.5119L41.5406 29.4898L41.5823 29.4686C41.6775 29.4208 41.7745 29.3765 41.8731 29.336C41.8866 29.3304 41.8999 29.325 41.9132 29.3192C41.9396 29.3081 41.9659 29.298 41.992 29.289C42.018 29.2802 42.0437 29.271 42.069 29.262C42.0921 29.2543 42.1144 29.2472 42.1361 29.2404L42.1435 29.2382C42.1551 29.2346 42.1667 29.2312 42.1783 29.2282L42.1817 29.2273C42.2053 29.2205 42.229 29.2144 42.2528 29.2087H42.2546C42.2897 29.2003 42.3238 29.1932 42.3572 29.1875C42.3686 29.1857 42.3799 29.1838 42.3908 29.1823C42.4232 29.1774 42.4558 29.174 42.4885 29.1718C42.5091 29.1703 42.5299 29.1697 42.5505 29.1697H42.5663C42.5873 29.1697 42.6075 29.171 42.6276 29.1731C42.6368 29.1731 42.646 29.1748 42.655 29.1761H42.6587C42.6677 29.177 42.6769 29.1785 42.6857 29.1804C42.6945 29.1823 42.7035 29.1836 42.7121 29.1857H42.7151C42.7238 29.1875 42.7318 29.19 42.7408 29.1924C42.8125 29.2117 42.8783 29.2481 42.9328 29.2984L42.9377 29.3032L42.9473 29.3126L42.9566 29.3225C43.0318 29.4017 43.0941 29.4922 43.141 29.5908L43.1483 29.6075C43.1642 29.645 43.1768 29.6839 43.1856 29.7236C43.21 29.8344 43.2034 29.9499 43.1665 30.0572C43.1505 30.1038 43.131 30.1492 43.108 30.1927L43.0926 30.2205C43.0341 30.3185 42.9651 30.4099 42.8865 30.4927L42.8696 30.5105C42.8327 30.5497 42.7943 30.5878 42.7547 30.6244C42.7421 30.6362 42.7292 30.648 42.7161 30.6598L42.6962 30.6778C42.655 30.7144 42.6128 30.75 42.57 30.7849C42.5625 30.7909 42.5548 30.7969 42.5475 30.8032C42.5177 30.8272 42.487 30.8516 42.4551 30.876C42.3452 30.96 42.2333 31.041 42.1193 31.1192C42.0521 31.1651 41.9828 31.2114 41.9111 31.2585C41.7776 31.346 41.6432 31.4317 41.5075 31.5157C41.4683 31.5399 41.4289 31.5645 41.3888 31.5889C41.02 31.8157 40.611 32.0584 40.1749 32.3222L40.062 32.3908C39.9385 32.4662 39.8218 32.5382 39.7121 32.6066L39.6568 32.6415L39.5522 32.7086C39.5108 32.7349 39.4705 32.7607 39.4313 32.7862C39.4016 32.8052 39.3728 32.8239 39.3445 32.8425L39.2886 32.8792C39.2614 32.897 39.2344 32.9149 39.2074 32.933L39.1811 32.9497C39.1534 32.9683 39.1264 32.9865 39.1001 33.0045L39.0572 33.0337L39.0068 33.0688L38.9603 33.1012C38.8868 33.1528 38.8142 33.2055 38.7422 33.2591L38.7171 33.2782C38.6888 33.2996 38.6614 33.321 38.635 33.3418L38.6005 33.3694C38.5423 33.416 38.4896 33.4609 38.442 33.5036L38.4188 33.525C38.4055 33.5372 38.3923 33.5494 38.38 33.5614C38.3711 33.5696 38.3631 33.578 38.3543 33.5863L38.3421 33.5983C38.3153 33.6251 38.2892 33.6527 38.2639 33.681L38.2515 33.6952C38.224 33.7271 38.2 33.7577 38.1788 33.7875L38.1694 33.801C38.145 33.8366 38.1235 33.8743 38.1051 33.9135L38.0987 33.9272L38.0948 33.9367L38.0916 33.945L38.0873 33.9564C38.086 33.9604 38.0833 33.9673 38.0818 33.9733C38.0741 33.9956 38.0685 34.0187 38.0648 34.0421L38.0629 34.0547L38.0614 34.0661L38.0605 34.0772V34.136C38.0605 34.1409 38.0605 34.146 38.0616 34.151C38.0618 34.154 38.0621 34.157 38.0625 34.16C38.0625 34.1649 38.0638 34.1698 38.0644 34.1749L38.068 34.1955V34.1964C38.0693 34.203 38.0706 34.2095 38.0723 34.2161C38.074 34.2227 38.0756 34.23 38.0777 34.2369C38.0837 34.2581 38.091 34.2791 38.0995 34.2995C38.0995 34.301 38.1008 34.3027 38.1013 34.3042C38.1036 34.3093 38.1056 34.3145 38.1081 34.3196C38.1173 34.341 38.1276 34.3618 38.1388 34.3822L38.1506 34.4034L38.163 34.4248L38.176 34.4462C38.1782 34.4497 38.1806 34.4529 38.1835 34.4561L38.1878 34.4606L38.1923 34.4647L38.1973 34.4687C38.2007 34.4711 38.2043 34.4732 38.208 34.4752C38.2118 34.4769 38.2159 34.4788 38.22 34.4803C38.2245 34.4818 38.229 34.4831 38.2335 34.4842C38.3417 34.5086 38.5641 34.419 38.8594 34.263L38.9125 34.2349L39.0023 34.1859L39.0463 34.1615C39.0775 34.1447 39.1095 34.1259 39.142 34.1074L39.2014 34.0738C39.592 33.849 40.0586 33.56 40.5409 33.278C40.5859 33.2516 40.6313 33.2254 40.6766 33.1991L40.7678 33.141C40.8133 33.1147 40.8587 33.0889 40.9043 33.0634C41.0981 32.9531 41.2946 32.8472 41.4932 32.7457L41.5823 32.7005C41.6415 32.6713 41.7002 32.6428 41.7581 32.615C41.8705 32.5618 41.9839 32.5114 42.0985 32.4635L42.1613 32.438L42.169 32.435C42.5016 32.3032 42.8033 32.2217 43.0474 32.2217C43.1003 32.2213 43.153 32.2256 43.2051 32.2346H43.2066C43.2235 32.2376 43.2386 32.241 43.254 32.2449H43.2568C43.2793 32.2504 43.3015 32.2573 43.3228 32.2659C43.3399 32.2721 43.3564 32.2794 43.3723 32.288C43.4423 32.3235 43.5021 32.3758 43.5467 32.4403C43.5505 32.4457 43.554 32.4514 43.5574 32.4572C43.5739 32.4823 43.5881 32.5087 43.5998 32.5365C43.6067 32.5524 43.6131 32.5689 43.6191 32.5867C43.6251 32.6047 43.6303 32.622 43.6358 32.6405C43.6755 32.7827 43.6716 32.933 43.6245 33.0729Z" fill="#D0D9DC"/>
<path fill-rule="evenodd" clip-rule="evenodd" d="M41.4126 22.8891V22.7972C41.4126 14.9496 35.053 8.58789 27.2048 8.58789C19.357 8.58789 12.9949 14.95 12.9949 22.7972L12.9948 22.828C12.9946 22.8484 12.9944 22.8686 12.9948 22.8891C12.9957 22.9196 12.996 22.9502 12.9957 22.9808L12.9968 23.0483L12.9972 23.0726L12.9981 23.106C12.9985 23.124 12.9991 23.1418 12.9991 23.1598L13.0009 23.2328L13.0039 23.3185L13.0049 23.3466L13.0086 23.4353V23.4394L13.0139 23.5431V23.5457C13.0158 23.5811 13.0176 23.6166 13.0199 23.6518C13.0218 23.6846 13.0238 23.7173 13.0261 23.7499L13.0266 23.7557C13.0283 23.7836 13.0302 23.8118 13.0323 23.8397L13.0328 23.847C13.0347 23.874 13.0368 23.9012 13.039 23.928L13.0394 23.9333L13.0431 23.9801C13.0544 24.1153 13.0675 24.2505 13.0825 24.3853L13.0834 24.3938L13.0947 24.4928L13.1076 24.597C13.1163 24.6664 13.1256 24.7356 13.1354 24.8048C13.1412 24.8466 13.1473 24.8882 13.1536 24.9298L13.1545 24.9349C13.1685 25.029 13.1836 25.1231 13.1999 25.2169C13.2465 25.489 13.3013 25.7597 13.3641 26.0286L13.3651 26.0329L13.3711 26.0582C13.3767 26.0822 13.3823 26.1062 13.3883 26.1304L13.3986 26.1178C13.8111 25.6247 14.4029 25.3528 15.0649 25.3528C15.5956 25.3528 16.1401 25.5281 16.6855 25.8741C17.0474 26.104 17.4475 26.5112 17.8593 27.0233C18.2403 26.494 18.7742 26.1424 19.3851 26.0464C19.5017 26.028 19.6195 26.0186 19.7372 26.0185C21.1317 26.0185 21.9715 27.2286 22.2887 28.3168C22.4453 28.6847 23.2009 30.3593 24.3402 31.4921C26.0717 33.2222 26.505 35.0076 25.6482 36.9191H25.651C25.7095 36.9255 25.7682 36.9315 25.827 36.937C25.8621 36.9403 25.8972 36.9437 25.9322 36.9467L25.9446 36.9478C25.9703 36.9503 25.9962 36.9525 26.022 36.9544L26.0933 36.9602C26.1612 36.9655 26.2292 36.9701 26.2977 36.9746L26.3517 36.9778L26.3946 36.9803L26.4214 36.9818L26.505 36.9863L26.5279 36.9872L26.616 36.991L26.7137 36.9947L26.7925 36.997L26.8056 36.9975C26.8221 36.9981 26.839 36.9988 26.8557 36.9988L26.8735 36.9992C26.9841 37.0018 27.0945 37.0031 27.2052 37.0031H27.3225L27.4065 37.0022C27.4272 37.0011 27.4476 37.0011 27.4682 37.0011H27.5009L27.5292 37.0005C27.5402 37.0001 27.5515 36.9998 27.5625 36.9998H27.5961L27.6619 36.9979L27.7609 36.9945L27.87 36.9898C27.9014 36.9885 27.9325 36.987 27.9638 36.9853L27.9974 36.9835L28.047 36.9806L28.0765 36.979L28.0984 36.9776L28.1991 36.9709C28.2327 36.9688 28.2662 36.9662 28.2998 36.9636L28.3909 36.9565L28.4552 36.951L28.5255 36.9446C28.5977 36.9379 28.6697 36.9308 28.7414 36.9233C28.7871 36.9182 28.8325 36.9131 28.878 36.9077L28.9581 36.8981C28.1145 34.9945 28.5512 33.2171 30.2759 31.4938C31.4125 30.3581 32.1681 28.6832 32.3256 28.3155C32.643 27.2271 33.4821 26.0171 34.8769 26.0171C34.9949 26.0173 35.1126 26.0265 35.229 26.0451C35.8394 26.1411 36.3735 26.4928 36.7551 27.022C37.167 26.5099 37.567 26.1026 37.9289 25.8728C38.4743 25.5268 39.0192 25.3515 39.5492 25.3515C40.1335 25.3515 40.6632 25.5634 41.0631 25.9519C41.085 25.854 41.1062 25.7561 41.1265 25.6579C41.1389 25.5966 41.151 25.5351 41.163 25.4734C41.1777 25.3976 41.1915 25.3215 41.2043 25.2454C41.2077 25.2248 41.2112 25.2041 41.2152 25.1833C41.2214 25.1509 41.2268 25.1188 41.2319 25.0862L41.2339 25.0738L41.2472 24.9889L41.2604 24.9028L41.2605 24.9019C41.2658 24.8659 41.2712 24.8297 41.2761 24.7935C41.28 24.7661 41.2838 24.7388 41.2874 24.7112L41.2896 24.6955L41.3012 24.6058L41.3108 24.5295C41.3166 24.4793 41.3222 24.429 41.3277 24.3786C41.3301 24.3585 41.3322 24.3383 41.3342 24.318L41.3361 24.3017C41.3397 24.2681 41.3429 24.2348 41.3459 24.2012L41.3534 24.1232C41.3689 23.9503 41.3815 23.7775 41.3912 23.6042V23.6031L41.3963 23.5112L41.3972 23.4906L41.401 23.4034C41.4025 23.3706 41.4038 23.3374 41.4049 23.3038V23.3014L41.4059 23.2772C41.4068 23.2566 41.4075 23.236 41.4075 23.2155L41.4079 23.2071C41.4087 23.188 41.4094 23.1681 41.4094 23.1484L41.41 23.1315C41.4105 23.1118 41.4111 23.0923 41.4111 23.0726L41.4115 23.056C41.412 23.0308 41.4126 23.0059 41.4126 22.9808V22.8891ZM23.6805 37.0841C24.8057 35.4338 24.726 34.1951 23.182 32.652C21.6379 31.1089 20.7392 28.8521 20.7392 28.8521C20.7392 28.8521 20.4038 27.5411 19.6388 27.6617C18.8738 27.7821 18.3126 29.7409 19.9142 30.94C21.5159 32.139 19.5957 32.952 18.9792 31.8268C18.3625 30.7015 16.6795 27.8089 15.8067 27.2556C14.9341 26.7023 14.3204 27.0124 14.5261 28.1528C14.6283 28.7188 15.5785 29.6848 16.4663 30.5875C17.3671 31.5034 18.2035 32.3537 18.0248 32.6546C17.6699 33.2524 16.4198 31.9525 16.4198 31.9525C16.4198 31.9525 12.5056 28.3905 11.6534 29.3188C10.8679 30.1744 12.0792 30.9017 13.9459 32.0226C14.1048 32.118 14.2683 32.2163 14.4357 32.3175C16.5713 33.6105 16.7374 33.9516 16.4344 34.4408C16.3225 34.6215 15.6076 34.1923 14.7282 33.6643C13.2291 32.7643 11.2523 31.5776 10.9733 32.6398C10.7316 33.5591 12.1859 34.1224 13.5048 34.6333C14.6035 35.059 15.6085 35.4482 15.4608 35.9766C15.3076 36.5243 14.4771 36.0675 13.5693 35.568C12.5502 35.0072 11.4336 34.3928 11.0684 35.0861C10.3776 36.3968 15.8328 37.9397 15.8776 37.951C17.6401 38.4081 22.116 39.3767 23.6805 37.0841ZM30.93 37.0841C29.8047 35.4338 29.8845 34.1951 31.4286 32.652C32.9727 31.1089 33.8715 28.8521 33.8715 28.8521C33.8715 28.8521 34.2068 27.5411 34.9718 27.6617C35.7368 27.7821 36.2982 29.7409 34.6964 30.94C33.0945 32.139 35.0149 32.952 35.6316 31.8268C36.2481 30.7015 37.9304 27.8089 38.803 27.2556C39.6756 26.7023 40.2895 27.0124 40.0838 28.1528C39.9816 28.7188 39.0314 29.685 38.1434 30.5876C37.2428 31.5034 36.4064 32.3537 36.585 32.6546C36.9398 33.2524 38.191 31.9517 38.191 31.9517C38.191 31.9517 42.105 28.3898 42.9572 29.3181C43.7427 30.1736 42.5312 30.9011 40.6645 32.0222C40.5057 32.1175 40.3424 32.2155 40.1749 32.317C38.0391 33.6098 37.8732 33.951 38.1762 34.44C38.2881 34.6208 39.003 34.1916 39.8822 33.6638C41.3815 32.7638 43.3583 31.5769 43.6373 32.6391C43.879 33.5584 42.4247 34.1218 41.1057 34.6328C40.0069 35.0584 39.0021 35.4475 39.1497 35.976C39.3029 36.5237 40.1329 36.0668 41.0404 35.5673C42.0595 35.0065 43.1762 34.3918 43.5417 35.0854C44.2324 36.397 38.7765 37.9382 38.7323 37.9496C36.9698 38.4081 32.4938 39.3767 30.93 37.0841Z" fill="#BECBCF"/>
<path fill-rule="evenodd" clip-rule="evenodd" d="M31.8197 18.9294C32.0411 19.0078 32.2059 19.2465 32.3627 19.4734C32.5746 19.7803 32.7718 20.0657 33.0744 19.9048C33.4316 19.7151 33.7243 19.4237 33.9157 19.0674C34.1072 18.7113 34.1886 18.3063 34.1497 17.9038C34.1209 17.6029 34.0256 17.312 33.8707 17.0523C33.7159 16.7926 33.5053 16.5705 33.2544 16.402C33.0034 16.2335 32.718 16.1227 32.4191 16.0777C32.12 16.0328 31.8148 16.0547 31.5253 16.1419C31.1381 16.2585 30.7942 16.4872 30.537 16.7992C30.2799 17.1112 30.1209 17.4924 30.0802 17.8946C30.0397 18.297 30.1194 18.7023 30.3092 19.0594C30.4494 19.3232 30.7607 19.1989 31.0892 19.0674C31.3468 18.9645 31.6149 18.8573 31.8197 18.9294ZM22.1867 18.9296C21.9652 19.008 21.8002 19.2467 21.6435 19.4736C21.4316 19.7803 21.2344 20.0659 20.9317 19.905C20.6649 19.7631 20.433 19.5636 20.2524 19.3211C20.0719 19.0787 19.9474 18.7993 19.8877 18.5029C19.8281 18.2066 19.8349 17.9007 19.9076 17.6073C19.9806 17.314 20.1174 17.0403 20.3085 16.8062C20.4999 16.5722 20.7407 16.3835 21.0137 16.2537C21.2867 16.1239 21.5852 16.0562 21.8874 16.0555C22.1897 16.0549 22.4884 16.1212 22.7619 16.2498C23.0355 16.3784 23.2772 16.5661 23.4696 16.7993C23.7268 17.1112 23.8858 17.4925 23.9265 17.8949C23.967 18.2972 23.8873 18.7025 23.6974 19.0596C23.5567 19.3234 23.2455 19.1989 22.917 19.0674C22.6596 18.9645 22.3914 18.8573 22.1867 18.9296ZM30.3294 27.6954C31.8562 26.4924 32.4171 24.5288 32.4171 23.319C32.4171 22.3628 31.7736 22.6637 30.7436 23.1735L30.6857 23.2024C29.7401 23.6706 28.4816 24.2938 27.1001 24.2938C25.7184 24.2938 24.4599 23.6704 23.5147 23.2022C22.4514 22.6755 21.7845 22.3451 21.7845 23.3192C21.7845 24.567 22.3811 26.6162 24.0189 27.8068C24.2349 27.3681 24.5391 26.9786 24.9126 26.6629C25.2859 26.3471 25.7205 26.112 26.1891 25.9719C26.3526 25.9232 26.5209 26.2046 26.6934 26.4926C26.8597 26.7707 27.0296 27.0549 27.2027 27.0549C27.3868 27.0549 27.5679 26.7748 27.7447 26.5013C27.9294 26.2155 28.1094 25.9369 28.2836 25.9926C29.1604 26.274 29.8937 26.8843 30.3294 27.6954Z" fill="#90A6AD"/>
<path d="M30.3289 27.6952C29.5337 28.3218 28.4767 28.742 27.1005 28.742C25.8073 28.742 24.7957 28.3712 24.0189 27.8066C24.2351 27.368 24.5394 26.9786 24.9127 26.663C25.286 26.3473 25.7207 26.112 26.189 25.9717C26.5102 25.8759 26.8504 27.0547 27.2025 27.0547C27.5795 27.0547 27.9427 25.8834 28.2836 25.9924C29.16 26.274 29.8931 26.8843 30.3289 27.6952Z" fill="#A4B6BC"/>
<path fill-rule="evenodd" clip-rule="evenodd" d="M18.5358 20.6308C18.3908 20.7285 18.2278 20.7966 18.0564 20.8311C17.8849 20.8656 17.7084 20.8659 17.5368 20.8322C17.3652 20.7982 17.202 20.7309 17.0565 20.634C16.911 20.5369 16.7861 20.4122 16.6889 20.2667C16.5917 20.1214 16.5242 19.9581 16.4902 19.7867C16.4562 19.6151 16.4564 19.4385 16.4908 19.2669C16.5251 19.0956 16.593 18.9326 16.6905 18.7873C16.788 18.6421 16.9132 18.5176 17.0589 18.4209C17.352 18.2264 17.7102 18.156 18.0551 18.2251C18.3999 18.2943 18.7033 18.4973 18.8988 18.7897C19.0942 19.0822 19.1658 19.4402 19.0978 19.7852C19.0297 20.1304 18.8276 20.4345 18.5358 20.6308ZM37.5506 20.6308C37.4055 20.7285 37.2425 20.7966 37.0711 20.8311C36.8998 20.8656 36.7231 20.8659 36.5516 20.8322C36.38 20.7982 36.2167 20.7309 36.0712 20.634C35.9257 20.5369 35.8008 20.4122 35.7037 20.2667C35.6064 20.1214 35.5389 19.9581 35.505 19.7867C35.471 19.6151 35.4712 19.4385 35.5055 19.2669C35.5398 19.0956 35.6077 18.9326 35.7052 18.7873C35.8027 18.6421 35.928 18.5176 36.0736 18.4209C36.3667 18.2264 36.725 18.156 37.0698 18.2251C37.4146 18.2943 37.718 18.4973 37.9136 18.7897C38.1089 19.0822 38.1806 19.4402 38.1125 19.7852C38.0444 20.1304 37.8423 20.4345 37.5506 20.6308Z" fill="#A4B6BC"/>
</svg>
