<svg width="144" height="48" viewBox="0 0 144 48" fill="none" xmlns="http://www.w3.org/2000/svg">
<path d="M50.7524 26.3328L49.8955 28.7607H49.8241C49.6813 28.2132 49.4194 27.3801 48.991 26.3804L44.3969 14.8358H39.8981V33.2357H42.8735V21.8816C42.8735 21.1675 42.8735 20.3581 42.8497 19.3584C42.8259 18.8585 42.7783 18.4777 42.7545 18.192H42.8259C42.9687 18.9061 43.1354 19.4298 43.2544 19.7631L48.7767 33.1881H50.8714L56.3462 19.644C56.4652 19.3346 56.5842 18.7157 56.7032 18.192H56.7746C56.7032 19.5488 56.6556 20.7628 56.6318 21.5007V33.1643H59.7977V14.7882H55.4655L50.7524 26.3328ZM62.7969 19.9773H65.8913V33.1643H62.7969V19.9773ZM64.3679 14.4073C63.8442 14.4073 63.4157 14.5978 63.0587 14.931C62.7016 15.2642 62.5112 15.6927 62.5112 16.2164C62.5112 16.7162 62.7016 17.1447 63.0587 17.4779C63.4157 17.8112 63.8442 17.9778 64.3679 17.9778C64.8915 17.9778 65.3438 17.7874 65.6771 17.4779C66.0341 17.1447 66.2245 16.7162 66.2245 16.2164C66.2245 15.7165 66.0341 15.2881 65.6771 14.931C65.3676 14.5978 64.9154 14.4073 64.3679 14.4073ZM76.8646 19.8583C76.2933 19.7393 75.6982 19.6678 75.1269 19.6678C73.7226 19.6678 72.4372 19.9773 71.366 20.5962C70.2949 21.2151 69.438 22.072 68.8905 23.1431C68.3192 24.2381 68.0336 25.4996 68.0336 26.9516C68.0336 28.2132 68.3192 29.332 68.8667 30.3555C69.4142 31.3552 70.1759 32.1646 71.1994 32.712C72.1753 33.2595 73.3179 33.5451 74.6033 33.5451C76.0791 33.5451 77.3407 33.2357 78.3404 32.6644L78.3642 32.6406V29.7842L78.2452 29.8794C77.7929 30.2127 77.2692 30.4983 76.7456 30.665C76.1981 30.8554 75.6982 30.9506 75.2698 30.9506C74.032 30.9506 73.0561 30.5935 72.3658 29.808C71.6517 29.0463 71.2946 27.999 71.2946 26.6898C71.2946 25.333 71.6517 24.2619 72.3896 23.4764C73.1275 22.6909 74.1034 22.2862 75.2936 22.2862C76.2933 22.2862 77.3169 22.6195 78.2452 23.2859L78.3642 23.3812V20.3581L78.3404 20.3343C77.9357 20.1677 77.4835 19.9773 76.8646 19.8583ZM87.0762 19.7631C86.3145 19.7631 85.6004 20.0011 84.9815 20.501C84.4578 20.9294 84.1008 21.5483 83.7913 22.2862H83.7675V19.9773H80.6731V33.1643H83.7675V26.428C83.7675 25.2854 84.0056 24.3333 84.5292 23.643C85.0529 22.9289 85.7194 22.5718 86.5287 22.5718C86.8143 22.5718 87.1 22.6433 87.457 22.6909C87.7903 22.7861 88.0283 22.8813 88.1949 23.0003L88.314 23.0955V20.0011L88.2425 19.9773C88.0283 19.8345 87.5999 19.7631 87.0762 19.7631ZM95.5025 19.6917C93.3364 19.6917 91.5988 20.3343 90.3848 21.5959C89.1471 22.8575 88.552 24.5951 88.552 26.785C88.552 28.8321 89.1709 30.4983 90.361 31.7123C91.5512 32.9025 93.1698 33.5213 95.1931 33.5213C97.3116 33.5213 99.0016 32.8787 100.216 31.5933C101.453 30.3079 102.048 28.5941 102.048 26.4756C102.048 24.3809 101.477 22.7147 100.311 21.5007C99.192 20.2867 97.5496 19.6917 95.5025 19.6917ZM97.9781 29.8318C97.4068 30.5697 96.5023 30.9268 95.3835 30.9268C94.2648 30.9268 93.3602 30.5697 92.7176 29.7842C92.0749 29.0463 91.7654 27.9752 91.7654 26.6184C91.7654 25.214 92.0987 24.1429 92.7176 23.3812C93.3602 22.6195 94.241 22.2386 95.3597 22.2386C96.4547 22.2386 97.3116 22.5956 97.9305 23.3336C98.5493 24.0715 98.8826 25.1426 98.8826 26.547C98.835 27.9752 98.5732 29.0939 97.9781 29.8318ZM108.951 25.452C107.975 25.0474 107.357 24.7379 107.071 24.4761C106.833 24.2381 106.714 23.9048 106.714 23.4764C106.714 23.1193 106.857 22.7623 107.214 22.5242C107.571 22.2862 107.975 22.1672 108.571 22.1672C109.094 22.1672 109.642 22.2624 110.165 22.4052C110.689 22.548 111.165 22.7623 111.546 23.0479L111.665 23.1431V20.2391L111.594 20.2153C111.236 20.0725 110.76 19.9297 110.189 19.8107C109.618 19.7155 109.094 19.6678 108.666 19.6678C107.19 19.6678 105.976 20.0249 105.024 20.8104C104.072 21.5483 103.619 22.548 103.619 23.7144C103.619 24.3333 103.715 24.8808 103.929 25.333C104.143 25.7853 104.453 26.2137 104.881 26.5708C105.309 26.904 105.928 27.2849 106.785 27.6419C107.499 27.9514 108.047 28.1894 108.38 28.3798C108.713 28.5703 108.928 28.7845 109.094 28.9511C109.213 29.1415 109.285 29.3796 109.285 29.689C109.285 30.5697 108.618 30.9982 107.261 30.9982C106.738 30.9982 106.19 30.903 105.548 30.6888C104.905 30.4745 104.31 30.1651 103.81 29.808L103.691 29.7128V32.7358L103.762 32.7596C104.215 32.9739 104.762 33.1167 105.428 33.2833C106.095 33.4023 106.69 33.4975 107.214 33.4975C108.809 33.4975 110.118 33.1405 111.046 32.355C111.998 31.5933 112.498 30.6173 112.498 29.3558C112.498 28.4751 112.26 27.6895 111.736 27.0945C111.046 26.5232 110.189 25.9281 108.951 25.452ZM120.663 19.6917C118.496 19.6917 116.759 20.3343 115.545 21.5959C114.331 22.8575 113.712 24.5951 113.712 26.785C113.712 28.8321 114.331 30.4983 115.521 31.7123C116.711 32.9025 118.33 33.5213 120.353 33.5213C122.472 33.5213 124.162 32.8787 125.376 31.5933C126.613 30.3079 127.208 28.5941 127.208 26.4756C127.208 24.3809 126.637 22.7147 125.471 21.5007C124.352 20.2867 122.71 19.6917 120.663 19.6917ZM123.114 29.8318C122.543 30.5697 121.639 30.9268 120.52 30.9268C119.377 30.9268 118.496 30.5697 117.854 29.7842C117.211 29.0463 116.902 27.9752 116.902 26.6184C116.902 25.214 117.235 24.1429 117.854 23.3812C118.496 22.6195 119.377 22.2386 120.496 22.2386C121.567 22.2386 122.448 22.5956 123.067 23.3336C123.686 24.0715 124.019 25.1426 124.019 26.547C124.019 27.9752 123.709 29.0939 123.114 29.8318ZM143.752 22.5242V19.9773H140.634V16.0736L140.538 16.0974L137.587 16.9781L137.515 17.0019V19.9773H132.85V18.3111C132.85 17.5494 133.04 16.9543 133.374 16.5734C133.707 16.1926 134.207 16.0021 134.826 16.0021C135.254 16.0021 135.706 16.0974 136.206 16.3116L136.325 16.383V13.6932L136.254 13.6694C135.825 13.5266 135.254 13.4314 134.516 13.4314C133.588 13.4314 132.778 13.6456 132.041 14.0027C131.303 14.4073 130.755 14.9548 130.35 15.6927C129.946 16.4068 129.732 17.2161 129.732 18.1444V19.9773H127.566V22.5004H129.732V33.1643H132.85V22.5242H137.515V29.3082C137.515 32.0931 138.824 33.4975 141.443 33.4975C141.871 33.4975 142.324 33.4261 142.752 33.3547C143.204 33.2595 143.538 33.1405 143.728 33.0453L143.752 33.0215V30.4745L143.633 30.5697C143.442 30.6888 143.276 30.784 142.99 30.8554C142.752 30.9268 142.538 30.9506 142.371 30.9506C141.752 30.9506 141.324 30.8078 141.014 30.4507C140.729 30.1175 140.586 29.57 140.586 28.7607V22.5242H143.752Z" fill="#BECBCF"/>
<path d="M0.00390625 8.64691H14.5953V23.2383H0.00390625V8.64691Z" fill="#BECBCF"/>
<path d="M16.1187 8.64691H30.71V23.2383H16.1187V8.64691Z" fill="#BECBCF"/>
<path d="M0.00390625 24.7617H14.5953V39.3531H0.00390625V24.7617Z" fill="#BECBCF"/>
<path d="M16.1187 24.7617H30.71V39.3531H16.1187V24.7617Z" fill="#BECBCF"/>
</svg>
