<svg width="142" height="48" viewBox="0 0 142 48" fill="none" xmlns="http://www.w3.org/2000/svg">
<path d="M86.6463 15.7459V33.3112H91.5329V15.7459H86.6463ZM47.5536 15.7459V33.3112H52.5723V19.5759H56.5344C57.8551 19.5759 58.6475 19.8401 59.3079 20.5004C60.1003 21.2928 60.3644 22.7456 60.3644 25.1229V33.1791H65.251V23.538C65.251 16.5383 60.7606 15.6138 56.5344 15.6138L47.5536 15.7459ZM94.5705 15.7459V33.3112H102.627C106.985 33.3112 108.306 32.6508 109.891 31.066C110.947 30.0094 111.608 27.5001 111.608 24.7267C111.608 22.2173 111.079 20.1042 110.023 18.6514C108.174 16.1421 105.532 15.7459 101.57 15.7459H94.5705ZM99.4571 19.5759H101.57C104.608 19.5759 106.721 20.8966 106.721 24.5946C106.721 28.2925 104.74 29.6132 101.57 29.6132H99.4571V19.5759ZM79.3825 15.7459L75.2883 29.7453L71.3262 15.7459H65.9114L71.5904 33.3112H78.7221L84.4011 15.7459H79.3825ZM113.985 33.3112H119.003V15.7459H113.985V33.3112ZM127.852 15.7459L120.985 33.3112H125.871L126.928 30.1415H135.116L136.173 33.1791H141.455L134.456 15.6138L127.852 15.7459ZM131.022 18.9156L134.059 27.1039H127.984L131.022 18.9156Z" fill="#BECBCF"/>
<path d="M15.4611 18.6512V16.274C15.7252 16.274 15.9893 16.274 16.1214 16.274C22.7249 16.0098 27.0832 21.953 27.0832 21.953C27.0832 21.953 22.4608 28.4244 17.4421 28.4244C16.7818 28.4244 16.1214 28.2923 15.4611 28.1603V20.7644C18.1025 21.0285 18.4987 22.2171 20.0835 24.7264L23.5173 21.8209C23.5173 21.8209 21.008 18.5192 16.7818 18.5192C16.3855 18.5192 15.9893 18.6512 15.4611 18.6512ZM15.4611 10.595V14.1609H16.1214C25.3663 13.8967 31.3094 21.6888 31.3094 21.6888C31.3094 21.6888 24.4418 30.0092 17.31 30.0092C16.6497 30.0092 16.1214 30.0092 15.4611 29.8772V32.1224C15.9893 32.1224 16.5176 32.2544 17.0459 32.2544C23.7815 32.2544 28.536 28.8206 33.2905 24.8585C34.0829 25.5189 37.2526 26.9716 37.9129 27.632C33.4226 31.3299 22.989 34.3675 17.178 34.3675C16.6497 34.3675 16.1214 34.3675 15.5931 34.2355V37.4052H40.9505V10.595H15.4611ZM15.4611 28.0282V29.8772C9.25377 28.8206 7.53686 22.3492 7.53686 22.3492C7.53686 22.3492 10.4424 19.0474 15.4611 18.5192V20.6323C12.8197 20.3681 10.8386 22.7454 10.8386 22.7454C10.8386 22.7454 12.0272 26.8396 15.4611 28.0282ZM4.49926 22.2171C4.49926 22.2171 8.19721 16.8023 15.4611 16.274V14.2929C7.40479 14.9533 0.40509 21.8209 0.40509 21.8209C0.40509 21.8209 4.36719 33.311 15.4611 34.3675V32.2544C7.27272 31.1979 4.49926 22.2171 4.49926 22.2171Z" fill="#BECBCF"/>
</svg>
