<svg width="119" height="48" viewBox="0 0 119 48" fill="none" xmlns="http://www.w3.org/2000/svg">
<path d="M42.1509 28.8701C40.6625 28.8701 39.1466 28.2542 38.1974 27.047V33.5685H35.2163V17.469H37.9119L38.0148 19.24C38.9394 17.8792 40.5814 17.1603 42.148 17.1603C45.1522 17.1603 47.3652 19.6777 47.3652 23.0152C47.3652 26.3528 45.1551 28.8716 42.1509 28.8701ZM41.2277 19.3704C39.4814 19.3704 38.0698 20.7312 38.0698 23.0167C38.0698 25.3021 39.4814 26.6658 41.2277 26.6658C42.974 26.6658 44.3856 25.305 44.3856 23.0196C44.3856 20.7341 42.974 19.3704 41.2277 19.3704Z" fill="#BECBCF"/>
<path d="M58.6011 28.5643L58.4983 26.7934C57.5736 28.1542 55.9302 28.873 54.3636 28.8716C51.3593 28.8716 49.1464 26.3557 49.1464 23.0181C49.1464 19.6805 51.355 17.1632 54.3636 17.1647C55.9302 17.1647 57.5736 17.8893 58.4983 19.2443L58.6011 17.4734H61.3025V28.5643H58.6011ZM55.2897 19.3719C53.5433 19.3719 52.1318 20.7327 52.1303 23.0181C52.1289 25.3036 53.5419 26.6658 55.2882 26.6658C57.0345 26.6658 58.4475 25.305 58.4475 23.0196C58.4475 20.7341 57.036 19.3719 55.2897 19.3719Z" fill="#BECBCF"/>
<path d="M71.7181 28.5658V22.4297C71.7181 20.2733 70.9746 19.5545 69.6138 19.5545C68.2008 19.5545 66.6603 20.837 66.6603 22.3776V28.5658H63.6807V17.4734H66.4038L66.5328 19.5284C67.2777 18.1154 68.9457 17.1661 70.6413 17.1661C73.5934 17.1661 74.6992 19.2211 74.6992 21.9674V28.5672L71.7181 28.5658Z" fill="#BECBCF"/>
<path d="M85.6163 28.5687L85.5134 26.7963C84.5888 28.1571 82.9454 28.876 81.3802 28.876C78.3759 28.876 76.163 26.3586 76.163 23.0211C76.163 19.6835 78.3716 17.1676 81.3802 17.1676C82.8686 17.1676 84.383 17.785 85.3337 18.9908V13.1634H88.3133V28.5687H85.6163ZM82.3048 19.3762C80.5657 19.3762 79.1469 20.7371 79.1469 23.0211C79.1469 25.3051 80.5585 26.6659 82.3048 26.6659C84.0511 26.6659 85.4627 25.3065 85.4627 23.0211C85.4627 20.7356 84.0555 19.3762 82.3048 19.3762Z" fill="#BECBCF"/>
<path d="M99.5042 28.5702L99.4013 26.7992C98.4767 28.16 96.8333 28.8774 95.2667 28.8774C92.2624 28.8774 90.0494 26.3615 90.0494 23.0225C90.0494 19.6835 92.2581 17.1691 95.2667 17.1691C96.8333 17.1691 98.4767 17.8937 99.4013 19.2502L99.5042 17.4778H102.2V28.5687L99.5042 28.5702ZM96.1927 19.3777C94.4537 19.3777 93.0349 20.7385 93.0334 23.024C93.032 25.3094 94.4464 26.6659 96.1913 26.6659C97.9362 26.6659 99.3506 25.3051 99.3506 23.0196C99.3506 20.7342 97.9391 19.3777 96.1927 19.3777Z" fill="#BECBCF"/>
<path d="M108.798 28.931C107.231 28.918 105.697 28.483 104.356 27.6716L104.845 25.6181C105.743 26.1572 107.104 26.8514 108.747 26.8514C109.929 26.8514 110.75 26.492 110.75 25.5674C110.75 24.7717 109.903 24.4891 108.388 24.1297C105.666 23.5384 104.691 22.1008 104.691 20.5342C104.691 18.7879 106.052 17.1459 109.056 17.1459C110.879 17.1459 112.472 17.9415 112.824 18.1473L112.336 20.0994C111.366 19.5154 110.259 19.1966 109.127 19.1748C107.921 19.1748 107.33 19.5849 107.33 20.253C107.33 20.9965 108.101 21.3313 109.281 21.6139C112.208 22.2298 113.389 23.5906 113.389 25.0804C113.395 27.4673 111.649 28.931 108.798 28.931Z" fill="#BECBCF"/>
<path d="M14.343 9.91565H10.8518V17.1647H14.343V9.91565Z" fill="#BECBCF"/>
<path d="M14.343 24.8065H10.8518V32.0556H14.343V24.8065Z" fill="#BECBCF"/>
<path d="M14.343 19.2806H10.8518V22.7008H14.343V19.2806Z" fill="#BECBCF"/>
<path d="M8.73595 15.8763H5.24475V39.9727H8.73595V15.8763Z" fill="#BECBCF"/>
<path d="M19.8357 30.7875H16.3445V38.0365H19.8357V30.7875Z" fill="#BECBCF"/>
<path d="M19.8357 15.885H16.3445V23.1341H19.8357V15.885Z" fill="#BECBCF"/>
<path d="M19.8357 25.2499H16.3445V28.6701H19.8357V25.2499Z" fill="#BECBCF"/>
<path d="M25.3268 8.02728H21.8356V32.1237H25.3268V8.02728Z" fill="#BECBCF"/>
</svg>
