<svg width="96" height="48" viewBox="0 0 96 48" fill="none" xmlns="http://www.w3.org/2000/svg">
<path d="M25.8501 18.1968L23.8092 20.2407C27.2107 23.6472 27.2107 29.1949 23.8092 32.6014C20.4077 36.0079 14.8682 36.0079 11.4667 32.6014C8.06522 29.1949 8.06522 23.6472 11.4667 20.2407L16.9091 14.7904L17.5893 14.0117V9.92395L9.32863 18.1968C8.24319 19.2729 7.38154 20.5538 6.79348 21.9655C6.20543 23.3771 5.90265 24.8915 5.90265 26.4211C5.90265 27.9506 6.20543 29.465 6.79348 30.8767C7.38154 32.2883 8.24319 33.5692 9.32863 34.6453C10.4031 35.7323 11.6821 36.5952 13.0917 37.1842C14.5013 37.7731 16.0134 38.0763 17.5408 38.0763C19.0681 38.0763 20.5802 37.7731 21.9898 37.1842C23.3994 36.5952 24.6784 35.7323 25.7529 34.6453C30.4178 30.0709 30.4178 22.6739 25.8501 18.1968Z" fill="#BECBCF" fill-opacity="0.92549"/>
<path d="M21.7683 17.6129C22.6271 17.6129 23.3232 16.9156 23.3232 16.0556C23.3232 15.1956 22.6271 14.4984 21.7683 14.4984C20.9095 14.4984 20.2133 15.1956 20.2133 16.0556C20.2133 16.9156 20.9095 17.6129 21.7683 17.6129Z" fill="#BECBCF" fill-opacity="0.92549"/>
<path d="M38.3499 25.6224H36.7523V29.7376H35.5596V18.056H38.4753C41.5684 18.056 43.0262 19.56 43.0262 21.736C43.0262 24.3024 41.2145 25.5856 38.3427 25.6296L38.3499 25.6224ZM38.4298 19.1624H36.7139V24.5168L38.3931 24.4728C40.6026 24.4288 41.796 23.5432 41.796 21.7288C41.796 20.092 40.6473 19.1624 38.4378 19.1624H38.4298ZM48.4247 29.6928L47.7177 31.5512C46.9221 33.6312 46.1201 34.2504 44.9338 34.2504C44.2708 34.2504 43.7851 34.0744 43.2547 33.852L43.6078 32.7904C44.0056 33.012 44.4465 33.144 44.9338 33.144C45.5968 33.144 46.0825 32.7904 46.7008 31.144L47.276 29.64L43.9625 21.1888H45.2006L47.8959 28.2688L50.548 21.1888H51.7406L48.4247 29.6928ZM55.714 19.2064V29.7824H54.5213V19.2064H50.4122V18.056H59.8223V19.1624H55.7132L55.714 19.2064ZM63.1806 30.0024C60.7945 30.0024 59.0267 28.2328 59.0267 25.4888C59.0267 22.7448 60.8384 20.9312 63.2604 20.9312C65.6465 20.9312 67.3696 22.7008 67.3696 25.4448C67.3696 28.1888 65.5579 30.0024 63.1718 30.0024H63.1806ZM63.2245 22.0024C61.4128 22.0024 60.2209 23.4624 60.2209 25.4536C60.2209 27.5336 61.4591 28.9496 63.2692 28.9496C65.0794 28.9496 66.2728 27.4896 66.2728 25.4984C66.2728 23.4184 65.0346 22.0024 63.2245 22.0024ZM70.3388 29.7816H69.1901V21.1976L70.3388 20.976V22.7904C70.914 21.684 71.7527 20.976 72.8575 20.976C73.3836 20.9803 73.9001 21.1174 74.3593 21.3744L74.0509 22.48C73.6979 22.2584 73.2122 22.1264 72.7249 22.1264C71.8414 22.1264 71.0018 22.7904 70.2949 24.3392V29.7816H70.3388ZM78.9102 30.0024C76.3476 30.0024 74.7124 28.144 74.7124 25.4888C74.7124 22.7896 76.4794 20.9312 78.9102 20.9312C79.9702 20.9312 80.8545 21.1968 81.6054 21.6832L81.2963 22.7448C80.6332 22.3024 79.8384 22.0368 78.9102 22.0368C77.0545 22.0368 75.9066 23.4088 75.9066 25.4448C75.9066 27.5248 77.1448 28.896 78.9549 28.896C79.8013 28.8921 80.6291 28.6465 81.341 28.188L81.5623 29.2496C80.8114 29.736 79.8831 30.0024 78.9102 30.0024ZM88.7629 29.7816V24.2504C88.7629 22.7464 88.1446 22.0904 86.9511 22.0904C85.979 22.0904 85.0068 22.5768 84.299 23.3304V29.8344H83.1503V17.1784L84.299 16.9568V22.3552C85.1825 21.4704 86.3313 20.9832 87.2595 20.9832C88.9386 20.9832 89.9547 22.0448 89.9547 23.9032V29.788L88.7629 29.7816Z" fill="#BECBCF"/>
</svg>
