<svg width="149" height="48" viewBox="0 0 149 48" fill="none" xmlns="http://www.w3.org/2000/svg">
<path d="M22.0886 25.8015L27.1178 22.8831L32.0726 25.8015L27.1178 28.658L22.0886 25.8635V25.8015ZM6.99866 17.1702L27.1277 5.7431L42.0913 14.2506L37.1365 22.8819L27.1401 17.169L12.0526 25.7384L6.99866 17.1702Z" fill="#D0D9DC"/>
<path d="M22.0886 37.2261V31.5132L27.0434 28.6567L32.0726 25.8003V31.5132L27.1178 34.3696V40.0826L22.0886 43.001V37.2261ZM22.0886 25.8015L17.0594 22.945L12.0303 25.7396V20.0254L27.1178 11.456V22.8819L22.0886 25.8015ZM37.0522 20.0266V17.1702L42.0814 14.2518L42.1433 19.9647L37.1141 22.8831L37.0522 20.0266Z" fill="#BECBCF"/>
<path d="M17.057 39.9589V22.9453L22.0118 20.1507L22.0738 25.8017L27.1029 28.5962V34.3711L22.0738 31.7005V43.0012L17.057 39.9589ZM9.48351 24.2496L6.99866 22.7594V17.1729L12.0278 20.0293V25.7423L9.48351 24.2496ZM27.1178 17.1704V11.4575L37.0522 17.1704L37.1142 22.8833L27.1178 17.1704Z" fill="#90A6AD"/>
<path d="M51.8092 19.1435V32.2738H49.5015V19.1435H45.0173V16.8792H56.2896V19.1423L51.8092 19.1435ZM63.93 23.9125C64.0712 24.4836 64.1341 25.0711 64.117 25.6591L56.6711 27.8665C56.7293 28.4239 56.7132 28.1972 56.8879 28.5936C57.0625 28.99 57.2843 29.3146 57.5469 29.5846C57.8095 29.8546 58.1043 30.0305 58.414 30.1544C58.7237 30.2783 59.0792 30.3427 59.4248 30.3402C59.9203 30.3402 60.3513 30.2597 60.7539 30.0987C61.1752 29.9268 61.5708 29.6975 61.9294 29.4174L63.2697 30.8667C62.7741 31.3451 62.1924 31.7255 61.5553 31.9877C60.9236 32.2515 60.1705 32.3841 59.2922 32.3841C58.631 32.3867 57.9764 32.2522 57.3697 31.9889C56.7504 31.7251 56.2301 31.3374 55.7768 30.8245C55.3234 30.3117 54.9642 29.6825 54.6991 28.9343C54.434 28.1861 54.3027 27.3239 54.3027 26.385C54.3027 25.4039 54.4266 24.5269 54.6768 23.7924C54.927 23.0578 55.2714 22.4298 55.7099 21.9133C56.1449 21.4112 56.6901 21.0166 57.3029 20.76C57.9541 20.4908 58.6532 20.3564 59.3579 20.3649C60.1779 20.3649 60.8939 20.5185 61.5008 20.8269C62.1078 21.1354 62.6157 21.5528 63.017 22.0656C63.4344 22.621 63.7403 23.252 63.9176 23.9237L63.93 23.9125ZM61.7659 24.4328C61.7362 24.0364 61.4637 23.5657 61.2382 23.2523C61.0258 22.9724 60.741 22.7557 60.4145 22.6255C60.0776 22.4917 59.6192 22.436 59.2167 22.4521C58.4734 22.4855 57.6063 22.7469 57.1951 23.3192C56.7838 23.8915 56.6538 24.8837 56.6699 25.9415L61.7659 24.4328ZM72.2912 32.1301V25.6021C72.2912 24.4303 72.0807 23.6202 71.6645 23.1408C71.2483 22.6614 70.6648 22.4372 69.9303 22.4372C69.1685 22.4372 68.5825 22.6937 68.1713 23.2052C67.76 23.7168 67.5557 24.4439 67.5557 25.3804V32.1264H65.2801V20.594H67.5433V21.6928C67.8368 21.2679 68.2431 20.9495 68.7634 20.7043C69.2837 20.459 69.8436 20.3525 70.4443 20.3525C71.792 20.3525 72.814 20.786 73.5101 21.6494C74.2063 22.5128 74.5544 23.8048 74.5544 25.5167V32.1314L72.2912 32.1301ZM83.8509 29.0978C83.8509 29.7419 83.7295 30.2807 83.4879 30.7131C83.2579 31.1331 82.9299 31.4913 82.5317 31.7573C82.1353 32.0211 81.6646 32.2119 81.1691 32.3271C80.6314 32.4462 80.0822 32.5052 79.5315 32.503C78.7387 32.503 77.9534 32.3643 77.1693 32.0856C76.4373 31.8339 75.7452 31.4785 75.1143 31.0302L76.135 29.3282C76.6499 29.6953 77.2163 29.9842 77.8159 30.1854C78.3944 30.3761 78.9555 30.4703 79.4968 30.4703C80.9028 30.4703 81.6063 30.0454 81.6063 29.1944C81.6063 28.7547 81.3685 28.4016 80.8928 28.1415C80.4172 27.8814 79.7607 27.5841 78.9258 27.2744C78.3856 27.0749 77.8607 26.8365 77.3551 26.5609C76.924 26.3181 76.571 26.0592 76.2997 25.7805C76.0381 25.5168 75.8391 25.1976 75.7175 24.8465C75.5998 24.5022 75.5416 24.1033 75.5416 23.6487C75.5416 23.1359 75.637 22.6825 75.8265 22.2861C76.013 21.8955 76.2919 21.5562 76.6391 21.2976C76.9909 21.0338 77.4071 20.8356 77.8778 20.703C78.3485 20.5705 78.8886 20.5049 79.4597 20.5049C80.2029 20.5049 80.899 20.6225 81.5803 20.8566C82.2616 21.0908 82.8587 21.3992 83.3715 21.7795L82.3991 23.5062C81.9309 23.1693 81.454 22.9203 80.9709 22.7593C80.4878 22.5983 79.9799 22.5178 79.4101 22.5178C78.8403 22.5178 78.4501 22.6169 78.2011 22.815C78.0833 22.9028 77.9879 23.0173 77.9229 23.1491C77.8578 23.2809 77.825 23.4262 77.827 23.5731C77.8257 23.7134 77.8558 23.8522 77.915 23.9794C77.9732 24.1033 78.0835 24.2321 78.2445 24.351C78.4459 24.5084 78.663 24.6445 78.8923 24.7573C79.2401 24.9307 79.5956 25.0882 79.9576 25.2293L81.6497 25.944C82.0897 26.1434 82.5002 26.4022 82.8698 26.7133C83.1891 26.9851 83.4409 27.3273 83.6056 27.7129C83.7667 28.0932 83.8472 28.5552 83.8472 29.0978H83.8509ZM94.3774 26.4383C94.3774 27.3921 94.2461 28.2443 93.9811 28.9987C93.716 29.7531 93.3617 30.391 92.8823 30.91C92.4263 31.421 91.864 31.826 91.2348 32.0967C90.6155 32.3692 89.9168 32.503 89.1687 32.503C88.4254 32.503 87.7627 32.3605 87.1471 32.0744C86.5312 31.7873 85.9841 31.3712 85.543 30.8543C85.0884 30.3278 84.7341 29.6973 84.4777 28.964C84.2213 28.2307 84.1061 27.4107 84.1061 26.5027C84.1061 25.565 84.2374 24.7227 84.5024 23.9757C84.7675 23.2288 85.1292 22.5946 85.59 22.0743C86.0352 21.5606 86.5914 21.1548 87.2165 20.8876C87.8519 20.6176 88.5171 20.4813 89.2479 20.4813C89.9521 20.4754 90.6493 20.6216 91.2918 20.9099C91.9152 21.1907 92.473 21.5987 92.9294 22.1077C93.3914 22.6206 93.7494 23.2474 94.0071 23.9869C94.2647 24.7264 94.3787 25.5439 94.3787 26.437L94.3774 26.4383ZM92.092 26.5039C92.092 25.3172 91.8443 24.3758 91.3116 23.6797C90.779 22.9835 90.0704 22.6354 89.1476 22.6354C88.748 22.6215 88.3515 22.7102 87.9959 22.893C87.6403 23.0758 87.3374 23.3466 87.1161 23.6797C86.6268 24.3771 86.3803 25.2949 86.3803 26.4383C86.3803 27.7141 86.6442 28.6828 87.1731 29.3492C87.4162 29.6701 87.7325 29.9282 88.0956 30.102C88.4586 30.2759 88.858 30.3605 89.2603 30.3489C89.6852 30.3489 90.0729 30.2461 90.4247 30.0417C90.7795 29.8335 91.0864 29.5528 91.3253 29.2179C91.5862 28.8482 91.7796 28.4351 91.8963 27.9978C92.0276 27.5296 92.0945 27.0316 92.0945 26.5039H92.092ZM101.673 23.1198C101.429 22.9898 101.171 22.8868 100.904 22.8126C100.64 22.7382 100.318 22.6887 99.938 22.6887C99.2196 22.6887 98.6621 22.9364 98.2682 23.4356C97.8743 23.9348 97.6736 24.6743 97.6736 25.6554V32.2478H95.4105V20.7105H97.6736V21.8092C97.9572 21.4105 98.3295 21.0832 98.7612 20.8529C99.236 20.5933 99.7698 20.461 100.311 20.4689C100.779 20.4689 101.178 20.5098 101.463 20.5903C101.749 20.6651 102.02 20.7879 102.264 20.9533L101.67 23.1086L101.673 23.1198Z" fill="#BECBCF"/>
<path d="M105.474 19.1434V23.1655H109.891V25.4286H105.474V32.2626H103.166V16.8791H113.076V19.1422L105.474 19.1434ZM113.451 32.2614V17.4291L115.714 16.2424V32.2638L113.451 32.2614ZM127.275 26.4394C127.275 27.3932 127.142 28.2455 126.879 28.9998C126.615 29.7542 126.247 30.3921 125.78 30.9112C125.324 31.4223 124.761 31.8274 124.131 32.0979C123.499 32.3704 122.813 32.5041 122.065 32.5041C121.334 32.5041 120.659 32.3617 120.043 32.0756C119.428 31.7894 118.894 31.3819 118.439 30.8554C117.985 30.329 117.63 29.6985 117.374 28.9652C117.118 28.2318 117.002 27.4118 117.002 26.5038C117.002 25.5661 117.134 24.7238 117.399 23.9769C117.664 23.2299 118.026 22.5957 118.486 22.0755C118.947 21.5552 119.477 21.1588 120.113 20.8888C120.748 20.6187 121.413 20.4825 122.144 20.4825C122.875 20.4825 123.556 20.6249 124.188 20.9111C124.812 21.1919 125.369 21.5999 125.826 22.1089C126.288 22.6217 126.646 23.2485 126.903 23.988C127.161 24.7275 127.275 25.5463 127.275 26.4394ZM124.99 26.5051C124.99 25.3184 124.742 24.377 124.209 23.6808C123.677 22.9847 122.968 22.6366 122.045 22.6366C121.181 22.6366 120.503 22.9834 120.014 23.6808C119.524 24.3782 119.278 25.2961 119.278 26.4394C119.278 27.7153 119.542 28.684 120.071 29.3504C120.314 29.6712 120.63 29.9293 120.993 30.1032C121.356 30.2771 121.756 30.3617 122.158 30.35C122.567 30.3545 122.969 30.2483 123.322 30.0428C123.677 29.8347 123.984 29.554 124.223 29.2191C124.471 28.8747 124.663 28.4684 124.793 27.999C124.923 27.5295 124.99 27.0328 124.99 26.5051ZM138.438 32.2626H136.506L134.945 26.4407L134.604 25.0905L134.352 23.9806L134.099 25.1016L133.758 26.4642L132.22 32.2663H130.288L127.123 20.729H129.352L130.715 26.3329L131.044 27.7178L131.286 28.8611L131.571 27.7178L131.923 26.3329L133.461 20.729H135.286L136.847 26.3552L137.187 27.7302L137.462 28.8623L137.715 27.7103L138.033 26.3354L139.396 20.7315H141.625L138.438 32.2626Z" fill="#BECBCF"/>
</svg>
