<svg xmlns="http://www.w3.org/2000/svg" enable-background="new 0 0 24 24" viewBox="0 0 24 24" id="file-check-alt"><path fill="#3CBAEF" d="M14.2,17.2c1-1,2.6-1,3.5,0l0.2,0.2l2-2V10h-5c-1.7,0-3-1.3-3-3V2H7C5.3,2,4,3.3,4,5v14c0,1.7,1.3,3,3,3h8.5l-1.2-1.2C13.3,19.8,13.3,18.2,14.2,17.2z M9,8h1c0.6,0,1,0.4,1,1s-0.4,1-1,1H9c-0.6,0-1-0.4-1-1S8.4,8,9,8z M9,12h6c0.6,0,1,0.4,1,1s-0.4,1-1,1H9c-0.6,0-1-0.4-1-1S8.4,12,9,12z M11,18H9c-0.6,0-1-0.4-1-1s0.4-1,1-1h2c0.6,0,1,0.4,1,1S11.6,18,11,18z M15,8h4.4L14,2.6V7C14,7.6,14.4,8,15,8z M22.7,16.3C22.7,16.3,22.7,16.3,22.7,16.3c-0.4-0.4-1-0.4-1.4,0L18,19.6l-1.3-1.3c-0.4-0.4-1-0.4-1.4,0c-0.4,0.4-0.4,1,0,1.4l2,2c0.4,0.4,1,0.4,1.4,0c0,0,0,0,0,0l4-4C23.1,17.3,23.1,16.7,22.7,16.3z"></path></svg>